<?xml version="1.0" encoding="utf-8"?>
<!-- Generator: Adobe Illustrator 16.0.0, SVG Export Plug-In . SVG Version: 6.00 Build 0)  -->
<!DOCTYPE svg PUBLIC "-//W3C//DTD SVG 1.1//EN" "http://www.w3.org/Graphics/SVG/1.1/DTD/svg11.dtd">
<svg version="1.1" id="Layer_1" xmlns="http://www.w3.org/2000/svg" xmlns:xlink="http://www.w3.org/1999/xlink" x="0px" y="0px"
	 width="1723.414px" height="610px" viewBox="0 0 1723.414 610" enable-background="new 0 0 1723.414 610" xml:space="preserve">
<path fill="none" stroke="#76E1A6" stroke-width="5" stroke-miterlimit="10" d="M408.28,529.273c-13.502,0-13.502-15.324-27-15.324
	c-13.5,0-13.5,15.324-27,15.324s-13.5-15.324-27-15.324c-13.498,0-13.498,15.324-26.997,15.324c-13.5,0-13.5-15.324-27-15.324
	c-13.499,0-13.499,15.324-26.997,15.324c-13.5,0-13.5-15.324-27-15.324"/>
<circle fill="none" stroke="#A1FFC9" stroke-width="4" stroke-miterlimit="10" cx="1415.142" cy="186.104" r="28"/>
<polygon fill="#A1FFC9" points="1285.969,560.885 1308.196,585.264 1321.104,550.848 "/>
<polyline fill="none" stroke="#A9D4FF" stroke-width="3.1014" stroke-miterlimit="10" points="1535.999,425.869 1556.934,404.935 
	1577.868,425.869 1598.802,404.935 1619.736,425.869 1640.671,404.935 1661.604,425.869 "/>
<rect x="148.74" y="260.546" transform="matrix(-0.747 0.6648 -0.6648 -0.747 453.9807 389.5031)" fill="#BACAF7" width="8.28" height="41.169"/>
</svg>
