<?xml version="1.0" encoding="utf-8"?>
<!-- Generator: Adobe Illustrator 16.0.0, SVG Export Plug-In . SVG Version: 6.00 Build 0)  -->
<!DOCTYPE svg PUBLIC "-//W3C//DTD SVG 1.1//EN" "http://www.w3.org/Graphics/SVG/1.1/DTD/svg11.dtd">
<svg version="1.1" id="Layer_1" xmlns="http://www.w3.org/2000/svg" xmlns:xlink="http://www.w3.org/1999/xlink" x="0px" y="0px"
	 width="613px" height="552px" viewBox="0 0 613 552" enable-background="new 0 0 613 552" xml:space="preserve">
<path fill="none" stroke="#D4E0FC" stroke-width="3.6608" stroke-miterlimit="10" d="M587.869,183.047
	c-11.111,0-11.111-12.615-22.226-12.615s-11.112,12.615-22.226,12.615c-11.114,0-11.112-12.615-22.229-12.615
	c-11.108,0-11.108,12.615-22.222,12.615c-11.114,0-11.111-12.615-22.228-12.615c-11.107,0-11.107,12.615-22.224,12.615
	c-11.11,0-11.11-12.615-22.227-12.615"/>
<polygon fill="none" stroke="#FFB2AC" stroke-width="2" stroke-miterlimit="10" points="309.996,89.161 306.864,108.137 
	327.277,101.614 "/>
<polygon fill="#FFCECC" points="529.869,457.174 507.048,459.399 520.832,480.908 "/>
<rect x="580.58" y="38.486" transform="matrix(0.7561 0.6545 -0.6545 0.7561 174.2399 -369.4122)" fill="#A1FFC3" width="4.249" height="21.118"/>
</svg>
