<?xml version="1.0" encoding="utf-8"?>
<!-- Generator: Adobe Illustrator 16.0.0, SVG Export Plug-In . SVG Version: 6.00 Build 0)  -->
<!DOCTYPE svg PUBLIC "-//W3C//DTD SVG 1.1//EN" "http://www.w3.org/Graphics/SVG/1.1/DTD/svg11.dtd">
<svg version="1.1" id="Layer_1" xmlns="http://www.w3.org/2000/svg" xmlns:xlink="http://www.w3.org/1999/xlink" x="0px" y="0px"
	 width="1723.414px" height="610px" viewBox="0 0 1723.414 610" enable-background="new 0 0 1723.414 610" xml:space="preserve">
<path fill="none" stroke="#A1FFC9" stroke-width="4" stroke-miterlimit="10" d="M707.795,431.134c-13.502,0-13.502-15.324-27-15.324
	c-13.5,0-13.5,15.324-27,15.324s-13.5-15.324-27-15.324c-13.498,0-13.498,15.324-26.997,15.324c-13.5,0-13.5-15.324-27-15.324
	c-13.499,0-13.499,15.324-26.997,15.324c-13.5,0-13.5-15.324-27-15.324"/>
<circle fill="none" stroke="#FFB2AC" stroke-width="2" stroke-miterlimit="10" cx="1628.274" cy="241.818" r="28"/>
<polygon fill="#A1FFC9" points="1314.969,508.885 1337.196,533.264 1350.104,498.848 "/>
<polyline fill="none" stroke="#ABE7FF" stroke-width="4" stroke-miterlimit="10" points="1374,70.5 1401,43.5 1428,70.5 1455,43.5 
	1482,70.5 1509,43.5 1536,70.5 "/>
<circle fill="none" stroke="#FFB2AC" stroke-width="3" stroke-miterlimit="10" cx="1669.28" cy="471.122" r="7.302"/>
<rect x="19.193" y="260.804" transform="matrix(-0.747 0.6648 -0.6648 -0.747 227.8243 476.0846)" fill="#BACAF7" width="8.28" height="41.167"/>
</svg>
