<?xml version="1.0" encoding="utf-8"?>
<!-- Generator: Adobe Illustrator 16.0.0, SVG Export Plug-In . SVG Version: 6.00 Build 0)  -->
<!DOCTYPE svg PUBLIC "-//W3C//DTD SVG 1.1//EN" "http://www.w3.org/Graphics/SVG/1.1/DTD/svg11.dtd">
<svg version="1.1" id="Layer_1" xmlns="http://www.w3.org/2000/svg" xmlns:xlink="http://www.w3.org/1999/xlink" x="0px" y="0px"
	 width="787.775px" height="480px" viewBox="0 32.5 787.775 480" enable-background="new 0 32.5 787.775 480" xml:space="preserve">
<path fill="none" stroke="#76E1A6" stroke-width="4" stroke-miterlimit="10" d="M790.36,444.046
	c-9.107,0-9.107-10.338-18.213-10.338c-9.107,0-9.107,10.338-18.216,10.338c-9.104,0-9.104-10.338-18.213-10.338
	c-9.104,0-9.104,10.338-18.211,10.338c-9.104,0-9.104-10.338-18.213-10.338c-9.104,0-9.104,10.338-18.213,10.338
	c-9.105,0-9.105-10.338-18.213-10.338"/>
<polyline fill="none" stroke="#A9D4FF" stroke-width="4" stroke-miterlimit="10" points="-11.399,137.902 9.435,117.068 
	30.268,137.902 51.101,117.068 71.935,137.902 92.768,117.068 113.601,137.902 "/>
<rect x="671.884" y="106.946" transform="matrix(0.5185 0.8551 -0.8551 0.5185 438.6734 -512.1748)" fill="#76E1A6" width="4.43" height="52.932"/>
<rect x="72.781" y="382.39" transform="matrix(-0.6536 0.7568 -0.7568 -0.6536 421.7438 593.7833)" fill="#FF80A1" width="4.43" height="22.02"/>
<rect x="708.075" y="115.322" transform="matrix(-0.8468 -0.5318 0.5318 -0.8468 1244.6094 611.0753)" fill="#A9CAFF" width="4.432" height="22.018"/>
<rect x="100.975" y="118.49" transform="matrix(-0.4812 -0.8766 0.8766 -0.4812 39.3222 282.2709)" fill="#FF80A1" width="4.43" height="22.019"/>
<circle fill="none" stroke="#FF80A1" stroke-width="3" stroke-miterlimit="10" cx="717.776" cy="112.485" r="15"/>
</svg>
