<?xml version="1.0" encoding="utf-8"?>
<!-- Generator: Adobe Illustrator 16.0.0, SVG Export Plug-In . SVG Version: 6.00 Build 0)  -->
<!DOCTYPE svg PUBLIC "-//W3C//DTD SVG 1.1//EN" "http://www.w3.org/Graphics/SVG/1.1/DTD/svg11.dtd">
<svg version="1.1" id="Layer_1" xmlns="http://www.w3.org/2000/svg" xmlns:xlink="http://www.w3.org/1999/xlink" x="0px" y="0px"
	 width="1640.918px" height="552px" viewBox="0 0 1640.918 552" enable-background="new 0 0 1640.918 552" xml:space="preserve">
<path fill="none" stroke="#83FFB8" stroke-width="4" stroke-miterlimit="10" d="M1122.661,116.371
	c-13.502,0-13.502-15.324-27-15.324c-13.5,0-13.5,15.324-27,15.324s-13.5-15.324-27-15.324c-13.498,0-13.498,15.324-26.997,15.324
	c-13.5,0-13.5-15.324-27-15.324c-13.498,0-13.498,15.324-26.998,15.324s-13.5-15.324-27-15.324"/>
<circle fill="none" stroke="#FFB2AC" stroke-width="2.6122" stroke-miterlimit="10" cx="676.959" cy="482.5" r="16"/>
<polygon fill="#B0FFD2" points="1047.61,395.236 1057.252,440.226 1096.989,407.838 "/>
<circle fill="none" stroke="#6EFFAC" stroke-width="3" stroke-miterlimit="10" cx="29.692" cy="453.621" r="19.947"/>
<rect x="1612.243" y="254.775" transform="matrix(-0.6648 -0.747 0.747 -0.6648 2486.3708 1660.9985)" fill="#FF7D96" width="7.198" height="35.779"/>
<rect x="781.092" y="27.334" transform="matrix(0.5239 -0.8518 0.8518 0.5239 337.6574 687.73)" fill="#C3BDF9" width="5.831" height="28.99"/>
</svg>
