<?xml version="1.0" encoding="utf-8"?>
<!-- Generator: Adobe Illustrator 16.0.0, SVG Export Plug-In . SVG Version: 6.00 Build 0)  -->
<!DOCTYPE svg PUBLIC "-//W3C//DTD SVG 1.1//EN" "http://www.w3.org/Graphics/SVG/1.1/DTD/svg11.dtd">
<svg version="1.1" id="Layer_1" xmlns="http://www.w3.org/2000/svg" xmlns:xlink="http://www.w3.org/1999/xlink" x="0px" y="0px"
	 width="1187.547px" height="552px" viewBox="0 0 1187.547 552" enable-background="new 0 0 1187.547 552" xml:space="preserve">
<path fill="none" stroke="#D4E0FC" stroke-width="3" stroke-miterlimit="10" d="M223.662,89.173
	c-9.107,0-9.107-10.338-18.214-10.338s-9.106,10.338-18.214,10.338c-9.106,0-9.105-10.338-18.213-10.338
	c-9.104,0-9.104,10.338-18.211,10.338c-9.106,0-9.105-10.338-18.214-10.338c-9.104,0-9.104,10.338-18.212,10.338
	c-9.106,0-9.106-10.338-18.213-10.338"/>
<path fill="none" stroke="#FFB2AC" stroke-width="15" stroke-miterlimit="10" d="M-2.01,144.538
	c37.979,0,68.767,30.787,68.767,68.762c0,37.982-30.787,68.771-68.767,68.771c-37.979,0-68.766-30.784-68.766-68.771
	C-70.776,175.325-39.989,144.538-2.01,144.538z"/>
<circle fill="none" stroke="#C0FFD9" stroke-width="3" stroke-miterlimit="10" cx="1185.985" cy="295.947" r="19.947"/>
<polygon fill="none" stroke="#FFB2AC" stroke-width="2" stroke-miterlimit="10" points="738.653,74.516 735.522,93.493 
	755.936,86.97 "/>
<polygon fill="#FFB2AC" points="431.26,342.125 414.054,343.803 424.446,360.02 "/>
<polyline fill="none" stroke="#BACAF7" stroke-width="4" stroke-miterlimit="10" points="952.841,367.824 968.452,352.216 
	984.059,367.824 999.667,352.216 1015.274,367.824 1030.88,352.216 1046.491,367.824 "/>
<rect x="221.448" y="415.537" transform="matrix(0.7565 0.654 -0.654 0.7565 333.4239 -42.4092)" fill="#C2FFCD" width="4.43" height="22.019"/>
<circle fill="none" stroke="#FF6464" stroke-width="2" stroke-miterlimit="10" cx="1118.874" cy="167.158" r="4.667"/>
</svg>
