<?xml version="1.0" encoding="utf-8"?>
<!-- Generator: Adobe Illustrator 16.0.0, SVG Export Plug-In . SVG Version: 6.00 Build 0)  -->
<!DOCTYPE svg PUBLIC "-//W3C//DTD SVG 1.1//EN" "http://www.w3.org/Graphics/SVG/1.1/DTD/svg11.dtd">
<svg version="1.1" id="Layer_1" xmlns="http://www.w3.org/2000/svg" xmlns:xlink="http://www.w3.org/1999/xlink" x="0px" y="0px"
	 width="1386.775px" height="671.5px" viewBox="-196.225 -119.5 1386.775 671.5"
	 enable-background="new -196.225 -119.5 1386.775 671.5" xml:space="preserve">
<polygon fill="none" stroke="#FFB0C8" stroke-width="3.6213" stroke-miterlimit="10" points="1014.919,30.158 1010.058,59.629 
	1041.758,49.5 "/>
<circle fill="none" stroke="#6EFFAC" stroke-width="2.4142" stroke-miterlimit="10" cx="961.144" cy="426.891" r="17.729"/>
<path fill="none" stroke="#B6EEFF" stroke-width="3.1653" stroke-miterlimit="10" d="M1194.92,300.771
	c-10.685,0-10.685-12.127-21.365-12.127c-10.683,0-10.683,12.127-21.365,12.127c-10.685,0-10.685-12.127-21.366-12.127
	s-10.682,12.127-21.363,12.127c-10.684,0-10.684-12.127-21.366-12.127c-10.682,0-10.682,12.127-21.363,12.127
	s-10.682-12.127-21.365-12.127"/>
<polygon fill="#FFDCE4" points="-72.094,141.297 -54.477,160.62 -44.248,133.343 "/>
<path fill="none" stroke="#A9D4FF" stroke-width="1.2071" stroke-miterlimit="10" d="M23.252,427.274v-41.402
	c0-8.574-6.95-15.526-15.524-15.526l0,0c-8.575,0-15.527,6.952-15.527,15.526v41.402h5.177H23.252z"/>
<path fill="none" stroke="#A9D4FF" stroke-width="1.2071" stroke-miterlimit="10" d="M12.903,427.274V442.8
	c0,2.859-2.317,5.177-5.175,5.177l0,0c-2.857,0-5.175-2.317-5.175-5.177v-15.525"/>
<g>
	<path fill="none" stroke="#A9D4FF" stroke-width="1.2071" stroke-miterlimit="10" d="M1.69,418.648c0,1.43-1.157,2.589-2.588,2.589
		l0,0c-1.429,0-2.589-1.158-2.589-2.589v-28.943c0-1.429,1.16-2.588,2.589-2.588l0,0c1.431,0,2.588,1.159,2.588,2.588V418.648z"/>
	<path fill="none" stroke="#A9D4FF" stroke-width="1.2071" stroke-miterlimit="10" d="M10.314,418.648
		c0,1.43-1.158,2.589-2.586,2.589l0,0c-1.434,0-2.591-1.158-2.591-2.589v-28.943c0-1.429,1.16-2.588,2.591-2.588l0,0
		c1.429,0,2.586,1.159,2.586,2.588V418.648z"/>
	<path fill="none" stroke="#A9D4FF" stroke-width="1.2071" stroke-miterlimit="10" d="M18.94,418.648
		c0,1.43-1.157,2.589-2.588,2.589l0,0c-1.429,0-2.586-1.158-2.586-2.589v-28.943c0-1.429,1.158-2.588,2.586-2.588l0,0
		c1.431,0,2.588,1.159,2.588,2.588V418.648z"/>
</g>
<rect x="-69.47" y="120.054" transform="matrix(0.6537 -0.7567 0.7567 0.6537 -124.0332 -4.3737)" fill="#FF80A1" width="5.348" height="26.579"/>
<line fill="none" stroke="#CAEFFF" stroke-width="2" stroke-miterlimit="10" x1="1025.908" y1="44.894" x2="1035.908" y2="101.101"/>
</svg>
