<?xml version="1.0" encoding="utf-8"?>
<!-- Generator: Adobe Illustrator 16.0.0, SVG Export Plug-In . SVG Version: 6.00 Build 0)  -->
<!DOCTYPE svg PUBLIC "-//W3C//DTD SVG 1.1//EN" "http://www.w3.org/Graphics/SVG/1.1/DTD/svg11.dtd">
<svg version="1.1" id="Layer_1" xmlns="http://www.w3.org/2000/svg" xmlns:xlink="http://www.w3.org/1999/xlink" x="0px" y="0px"
	 width="1190.55px" height="552px" viewBox="0 0 1190.55 552" enable-background="new 0 0 1190.55 552" xml:space="preserve">
<path fill="none" stroke="#FFFFFF" stroke-width="3" stroke-miterlimit="10" d="M1010.304,442.406
	c-9.107,0-9.107-10.338-18.213-10.338c-9.107,0-9.107,10.338-18.215,10.338c-9.105,0-9.105-10.338-18.213-10.338
	c-9.105,0-9.105,10.338-18.211,10.338c-9.107,0-9.105-10.338-18.213-10.338c-9.105,0-9.105,10.338-18.217,10.338
	c-9.104,0-9.104-10.338-18.213-10.338"/>
<circle fill="none" stroke="#FFFFFF" stroke-width="4" stroke-miterlimit="10" cx="109.877" cy="377.881" r="31.162"/>
<polygon fill="none" stroke="#FFFFFF" stroke-width="3" stroke-miterlimit="10" points="436.854,117.054 432.827,141.47 
	459.089,133.078 "/>
<polyline fill="none" stroke="#FFFFFF" stroke-width="3" stroke-miterlimit="10" points="-11.605,203.468 9.229,182.634 
	30.062,203.468 50.895,182.634 71.729,203.468 92.562,182.634 113.395,203.468 "/>
<rect x="1028.392" y="204.44" transform="matrix(-0.5185 -0.8551 0.8551 -0.5185 1367.5072 1231.8896)" fill="#6EFFAC" width="4.43" height="52.933"/>
<rect x="456.874" y="468.277" transform="matrix(0.6539 -0.7566 0.7566 0.6539 -203.7276 513.2434)" fill="#FF5F75" width="4.43" height="22.02"/>
<rect x="753.51" y="95.938" transform="matrix(0.8129 0.5824 -0.5824 0.8129 203.6572 -420.0999)" fill="#FF5F75" width="4.43" height="22.02"/>
<rect x="1141.849" y="334.394" transform="matrix(-0.6539 0.7566 -0.7566 -0.6539 2153.4697 -294.3514)" fill="#FFFFFF" width="4.43" height="22.018"/>
<rect x="99.417" y="336.704" transform="matrix(0.9645 -0.2641 0.2641 0.9645 -88.2245 39.1875)" fill="#6EFFAC" width="4.43" height="22.018"/>
<rect x="1064.295" y="209.493" transform="matrix(0.8468 0.5319 -0.5319 0.8468 280.7012 -533.5338)" fill="#6EFFAC" width="4.431" height="22.017"/>
<rect x="103.069" y="182.041" transform="matrix(0.4811 0.8767 -0.8767 0.4811 223.8736 7.876)" fill="#FF5F75" width="4.43" height="22.021"/>
<circle fill="none" stroke="#6EFFAC" stroke-width="3" stroke-miterlimit="10" cx="1010.304" cy="444.907" r="14.688"/>
<circle fill="none" stroke="#6EFFAC" stroke-width="2" stroke-miterlimit="10" cx="257.514" cy="459.595" r="9.688"/>
<g>
	<polygon fill="none" stroke="#FFFFFF" stroke-width="2.3" stroke-miterlimit="10" points="924.767,145.05 915.208,174.257 
		905.65,145.05 	"/>
	<path fill="none" stroke="#6EFFAC" stroke-width="2.3" stroke-miterlimit="10" d="M905.421,145.056
		c-2.01-1.483-3.313-3.867-3.313-6.556c0-4.497,3.645-8.142,8.143-8.142c2.811,0,5.289,1.423,6.752,3.59
		c0.877,1.3,1.391,2.866,1.391,4.552"/>
	<path fill="none" stroke="#6EFFAC" stroke-width="2.3" stroke-miterlimit="10" d="M924.535,145.056
		c1.965-1.483,3.24-3.867,3.24-6.556c0-4.497-3.566-8.142-7.967-8.142c-1.574,0-3.045,0.468-4.279,1.275"/>
	<path fill="none" stroke="#6EFFAC" stroke-width="2.3" stroke-miterlimit="10" d="M907.062,130.624c0-4.252,3.449-7.7,7.701-7.7
		c4.254,0,7.701,3.448,7.701,7.7"/>
</g>
</svg>
