<?xml version="1.0" encoding="utf-8"?>
<!-- Generator: Adobe Illustrator 16.0.0, SVG Export Plug-In . SVG Version: 6.00 Build 0)  -->
<!DOCTYPE svg PUBLIC "-//W3C//DTD SVG 1.1//EN" "http://www.w3.org/Graphics/SVG/1.1/DTD/svg11.dtd">
<svg version="1.1" id="Layer_1" xmlns="http://www.w3.org/2000/svg" xmlns:xlink="http://www.w3.org/1999/xlink" x="0px" y="0px"
	 width="766.775px" height="552px" viewBox="0 0 766.775 552" enable-background="new 0 0 766.775 552" xml:space="preserve">
<path fill="none" stroke="#FFFFFF" stroke-width="3" stroke-miterlimit="10" d="M695.158,438.295
	c-9.107,0-9.107-10.338-18.213-10.338c-9.107,0-9.107,10.338-18.216,10.338c-9.104,0-9.104-10.338-18.213-10.338
	c-9.104,0-9.104,10.338-18.211,10.338s-9.104-10.338-18.213-10.338c-9.104,0-9.104,10.338-18.215,10.338
	c-9.104,0-9.104-10.338-18.213-10.338"/>
<polygon fill="none" stroke="#FFFFFF" stroke-width="3" stroke-miterlimit="10" points="367.445,51.108 363.42,75.523 
	389.681,67.132 "/>
<polyline fill="none" stroke="#FFFFFF" stroke-width="3" stroke-miterlimit="10" points="-29.093,156.222 -8.259,135.388 
	12.574,156.222 33.407,135.388 54.241,156.222 75.074,135.388 95.907,156.222 "/>
<rect x="683.017" y="89.147" transform="matrix(-0.5185 -0.8551 0.8551 -0.5185 941.6498 761.4932)" fill="#6EFFAC" width="4.43" height="52.933"/>
<rect x="351.397" y="473.039" transform="matrix(0.6537 -0.7567 0.7567 0.6537 -243.848 435.1867)" fill="#FF5F75" width="4.429" height="22.021"/>
<rect x="500.885" y="127.543" transform="matrix(0.6537 -0.7567 0.7567 0.6537 69.3546 428.6772)" fill="#FF5F75" width="4.429" height="22.021"/>
<rect x="719.148" y="330.281" transform="matrix(-0.6539 0.7566 -0.7566 -0.6539 1451.2653 18.6648)" fill="#FFFFFF" width="4.43" height="22.02"/>
<rect x="26.148" y="364.372" transform="matrix(0.9645 -0.2641 0.2641 0.9645 -98.1332 20.8193)" fill="#6EFFAC" width="4.43" height="22.018"/>
<rect x="718.916" y="94.204" transform="matrix(0.8468 0.5319 -0.5319 0.8468 166.4568 -367.4777)" fill="#6EFFAC" width="4.431" height="22.017"/>
<rect x="85.578" y="134.782" transform="matrix(0.481 0.8767 -0.8767 0.481 173.3816 -1.3049)" fill="#FF5F75" width="4.43" height="22.02"/>
<circle fill="none" stroke="#6EFFAC" stroke-width="5" stroke-miterlimit="10" cx="98.51" cy="442.645" r="14.687"/>
</svg>
