<?xml version="1.0" encoding="utf-8"?>
<!-- Generator: Adobe Illustrator 16.0.0, SVG Export Plug-In . SVG Version: 6.00 Build 0)  -->
<!DOCTYPE svg PUBLIC "-//W3C//DTD SVG 1.1//EN" "http://www.w3.org/Graphics/SVG/1.1/DTD/svg11.dtd">
<svg version="1.1" id="Layer_1" xmlns="http://www.w3.org/2000/svg" xmlns:xlink="http://www.w3.org/1999/xlink" x="0px" y="0px"
	 width="598.714px" height="841.89px" viewBox="0 0 598.714 841.89" enable-background="new 0 0 598.714 841.89"
	 xml:space="preserve">
<path fill="none" stroke="#9ED3FF" stroke-width="4" stroke-miterlimit="10" d="M625.144,241.091c-11.893,0-11.893-13.5-23.783-13.5
	c-11.895,0-11.895,13.5-23.787,13.5c-11.895,0-11.895-13.5-23.787-13.5s-11.893,13.5-23.785,13.5c-11.891,0-11.893-13.5-23.787-13.5
	c-11.893,0-11.893,13.5-23.785,13.5c-11.891,0-11.893-13.5-23.787-13.5"/>
<circle fill="none" stroke="#FFC5D3" stroke-width="4" stroke-linecap="round" stroke-linejoin="round" stroke-miterlimit="10" cx="316.175" cy="822.437" r="49"/>
<rect x="523.111" y="675.375" transform="matrix(0.4144 0.9101 -0.9101 0.4144 936.0818 -74.9674)" fill="#9283FF" width="6.374" height="29.136"/>
<polygon fill="#FFB2AC" points="357.951,61.854 373.555,40.96 385.334,70.445 "/>
</svg>
