<?xml version="1.0" encoding="utf-8"?>
<!-- Generator: Adobe Illustrator 16.0.0, SVG Export Plug-In . SVG Version: 6.00 Build 0)  -->
<!DOCTYPE svg PUBLIC "-//W3C//DTD SVG 1.1//EN" "http://www.w3.org/Graphics/SVG/1.1/DTD/svg11.dtd">
<svg version="1.1" id="Layer_1" xmlns="http://www.w3.org/2000/svg" xmlns:xlink="http://www.w3.org/1999/xlink" x="0px" y="0px"
	 width="598.714px" height="841.89px" viewBox="0 0 598.714 841.89" enable-background="new 0 0 598.714 841.89"
	 xml:space="preserve">
<path fill="none" stroke="#9ED3FF" stroke-width="4" stroke-miterlimit="10" d="M625.144,241.091c-11.893,0-11.893-13.5-23.783-13.5
	c-11.895,0-11.895,13.5-23.787,13.5c-11.895,0-11.895-13.5-23.787-13.5s-11.893,13.5-23.785,13.5c-11.891,0-11.893-13.5-23.787-13.5
	c-11.893,0-11.893,13.5-23.785,13.5c-11.891,0-11.893-13.5-23.787-13.5"/>
<rect x="536.005" y="621.573" transform="matrix(-0.4143 -0.9101 0.9101 -0.4143 183.6113 1390.4375)" fill="#9283FF" width="6.374" height="29.135"/>
<polygon fill="#FFB2AC" points="497.992,28.433 513.596,7.539 525.375,37.024 "/>
<line fill="none" stroke="#FFC5D3" stroke-width="6" stroke-linecap="round" stroke-linejoin="round" stroke-miterlimit="10" x1="327.256" y1="687.366" x2="341.721" y2="699.323"/>
</svg>
