<?xml version="1.0" encoding="utf-8"?>
<!-- Generator: Adobe Illustrator 16.0.0, SVG Export Plug-In . SVG Version: 6.00 Build 0)  -->
<!DOCTYPE svg PUBLIC "-//W3C//DTD SVG 1.1//EN" "http://www.w3.org/Graphics/SVG/1.1/DTD/svg11.dtd">
<svg version="1.1" id="Layer_1" xmlns="http://www.w3.org/2000/svg" xmlns:xlink="http://www.w3.org/1999/xlink" x="0px" y="0px"
	 width="1180.207px" height="610px" viewBox="0 0 1180.207 610" enable-background="new 0 0 1180.207 610" xml:space="preserve">
<path fill="none" stroke="#76E1A6" stroke-width="5" stroke-miterlimit="10" d="M318.28,529.273c-13.502,0-13.502-15.324-27-15.324
	c-13.5,0-13.5,15.324-27,15.324s-13.5-15.324-27-15.324c-13.498,0-13.498,15.324-26.997,15.324c-13.5,0-13.5-15.324-27-15.324
	c-13.499,0-13.499,15.324-26.997,15.324c-13.5,0-13.5-15.324-27-15.324"/>
<circle fill="none" stroke="#A1FFC9" stroke-width="4" stroke-miterlimit="10" cx="998.709" cy="208.531" r="28"/>
<polygon fill="#A1FFC9" points="963.574,549.652 985.802,574.031 998.709,539.615 "/>
<polyline fill="none" stroke="#A9D4FF" stroke-width="3.1014" stroke-miterlimit="10" points="1037.196,426.804 1058.131,405.869 
	1079.065,426.804 1099.999,405.869 1120.934,426.804 1141.868,405.869 1162.801,426.804 "/>
<rect x="100.87" y="284.415" transform="matrix(-0.747 0.6648 -0.6648 -0.747 386.2197 463.0285)" fill="#BACAF7" width="8.28" height="41.17"/>
</svg>
