<?xml version="1.0" encoding="utf-8"?>
<!-- Generator: Adobe Illustrator 16.0.0, SVG Export Plug-In . SVG Version: 6.00 Build 0)  -->
<!DOCTYPE svg PUBLIC "-//W3C//DTD SVG 1.1//EN" "http://www.w3.org/Graphics/SVG/1.1/DTD/svg11.dtd">
<svg version="1.1" id="Layer_1" xmlns="http://www.w3.org/2000/svg" xmlns:xlink="http://www.w3.org/1999/xlink" x="0px" y="0px"
	 width="1190.55px" height="552px" viewBox="0 0 1190.55 552" enable-background="new 0 0 1190.55 552" xml:space="preserve">
<path fill="none" stroke="#76E1A6" stroke-width="2.0237" stroke-miterlimit="10" d="M902.15,470.736
	c-9.107,0-9.107-10.338-18.213-10.338c-9.107,0-9.107,10.338-18.215,10.338c-9.105,0-9.105-10.338-18.213-10.338
	c-9.104,0-9.104,10.338-18.211,10.338c-9.105,0-9.105-10.338-18.213-10.338c-9.105,0-9.105,10.338-18.213,10.338
	c-9.105,0-9.105-10.338-18.213-10.338"/>
<path fill="none" stroke="#76E1A6" stroke-width="1.4" stroke-miterlimit="10" d="M228.283,266.252c0,0,7.673-3.923,13.989-0.053
	c5.21,3.191,9.495,2.479,9.495,2.479"/>
<polyline fill="none" stroke="#76E1A6" stroke-width="1.4" stroke-miterlimit="10" points="235.278,284.953 228.426,239.844 
	214.008,248.837 "/>
<polygon fill="none" stroke="#76E1A6" stroke-width="1.4" stroke-miterlimit="10" points="226.855,253.976 254.263,253.976 
	250.409,288.664 230.71,288.664 "/>
<circle fill="none" stroke="#76E1A6" stroke-width="1.4" stroke-miterlimit="10" cx="254.245" cy="254.208" r="8.903"/>
<polygon fill="none" stroke="#FFB2AC" stroke-width="1.5001" stroke-miterlimit="10" points="331.719,82.446 327.692,106.862 
	353.954,98.47 "/>
<polyline fill="none" stroke="#A9D4FF" stroke-width="2.3148" stroke-miterlimit="10" points="-5.034,150.256 15.8,129.422 
	36.633,150.256 57.466,129.422 78.3,150.256 99.133,129.422 119.966,150.256 "/>
<path fill="none" stroke="#FD8177" stroke-width="2" stroke-linecap="round" stroke-linejoin="round" stroke-miterlimit="10" d="
	M986.093,299.359c9.986,11.372,8.865,28.685-2.506,38.671c-11.369,9.984-28.682,8.862-38.668-2.506L986.093,299.359z"/>
<path fill="none" stroke="#FD8177" stroke-width="2" stroke-linecap="round" stroke-linejoin="round" stroke-miterlimit="10" d="
	M983.451,301.682c8.678,9.881,7.701,24.92-2.178,33.597c-9.879,8.678-24.918,7.703-33.594-2.177"/>
<g>
	<path fill="none" stroke="#FD8177" stroke-width="2" stroke-linecap="round" stroke-linejoin="round" stroke-miterlimit="10" d="
		M970.861,323.326c0,0,1.295,4.927,3.008,3.423C975.58,325.246,970.861,323.326,970.861,323.326z"/>
	<path fill="none" stroke="#FD8177" stroke-width="2" stroke-linecap="round" stroke-linejoin="round" stroke-miterlimit="10" d="
		M976.873,315.216c0,0,3.256,3.916,4.172,1.83C981.958,314.96,976.873,315.216,976.873,315.216z"/>
	<path fill="none" stroke="#FD8177" stroke-width="2" stroke-linecap="round" stroke-linejoin="round" stroke-miterlimit="10" d="
		M961.888,328.374c0,0,3.465,3.734,1.277,4.373C960.976,333.386,961.888,328.374,961.888,328.374z"/>
</g>
<rect x="1085.284" y="146.697" transform="matrix(0.5189 0.8548 -0.8548 0.5189 662.7914 -850.1881)" fill="#76E1A6" width="2.853" height="34.078"/>
<rect x="435.406" y="459.744" transform="matrix(-0.6538 0.7567 -0.7567 -0.6538 1079.9408 447.3661)" fill="#FF80A1" width="4.43" height="22.019"/>
<rect x="1108.437" y="149.951" transform="matrix(-0.8469 -0.5318 0.5318 -0.8469 1966.2758 880.238)" fill="#A9CAFF" width="2.853" height="14.176"/>
<rect x="107.339" y="130.83" transform="matrix(-0.4811 -0.8767 0.8767 -0.4811 37.9144 306.1208)" fill="#FF80A1" width="4.43" height="22.02"/>
<polygon fill="none" stroke="#FFABBF" stroke-width="1.7332" stroke-miterlimit="10" points="171.997,407.764 179.328,430.5 
	193.351,411.185 "/>
<g>
	<path fill="none" stroke="#6EFFAC" stroke-width="2" stroke-miterlimit="10" d="M895.201,73.304c0,0-2.312,32.287-37.744,23.335"/>
	
		<line fill="none" stroke="#FFFFFF" stroke-width="2" stroke-linecap="round" stroke-linejoin="round" stroke-miterlimit="10" x1="898.53" y1="71.246" x2="847.441" y2="102.83"/>
	
		<line fill="none" stroke="#FFFFFF" stroke-width="2" stroke-linecap="round" stroke-linejoin="round" stroke-miterlimit="10" x1="894.663" y1="102.83" x2="853.549" y2="91.322"/>
	
		<line fill="none" stroke="#FFFFFF" stroke-width="2" stroke-linecap="round" stroke-linejoin="round" stroke-miterlimit="10" x1="883.442" y1="80.573" x2="887.443" y2="100.714"/>
</g>
</svg>
