<?xml version="1.0" encoding="utf-8"?>
<!-- Generator: Adobe Illustrator 16.0.0, SVG Export Plug-In . SVG Version: 6.00 Build 0)  -->
<!DOCTYPE svg PUBLIC "-//W3C//DTD SVG 1.1//EN" "http://www.w3.org/Graphics/SVG/1.1/DTD/svg11.dtd">
<svg version="1.1" id="Layer_1" xmlns="http://www.w3.org/2000/svg" xmlns:xlink="http://www.w3.org/1999/xlink" x="0px" y="0px"
	 width="787.775px" height="552px" viewBox="0 0 787.775 552" enable-background="new 0 0 787.775 552" xml:space="preserve">
<path fill="none" stroke="#76E1A6" stroke-width="2.0237" stroke-miterlimit="10" d="M676.83,478.854
	c-9.106,0-9.106-10.338-18.213-10.338c-9.107,0-9.106,10.338-18.215,10.338c-9.104,0-9.104-10.338-18.213-10.338
	c-9.104,0-9.104,10.338-18.212,10.338c-9.104,0-9.104-10.338-18.213-10.338c-9.104,0-9.104,10.338-18.214,10.338
	c-9.104,0-9.104-10.338-18.213-10.338"/>
<path fill="none" stroke="#76E1A6" stroke-width="1.5" stroke-miterlimit="10" d="M100.108,369.059c0,0,7.673-3.923,13.989-0.053
	c5.21,3.191,9.495,2.479,9.495,2.479"/>
<polyline fill="none" stroke="#76E1A6" stroke-width="1.5" stroke-miterlimit="10" points="107.103,387.759 100.251,342.65 
	85.833,351.644 "/>
<polygon fill="none" stroke="#76E1A6" stroke-width="1.5" stroke-miterlimit="10" points="98.68,356.782 126.089,356.782 
	122.234,391.47 102.535,391.47 "/>
<circle fill="none" stroke="#76E1A6" stroke-width="1.5" stroke-miterlimit="10" cx="126.07" cy="357.015" r="8.903"/>
<polygon fill="none" stroke="#FFB2AC" stroke-width="2" stroke-miterlimit="10" points="379.587,46.406 375.559,70.822 
	401.821,62.43 "/>
<polyline fill="none" stroke="#A9D4FF" stroke-width="2.3148" stroke-miterlimit="10" points="32.536,105.501 53.37,84.667 
	74.203,105.501 95.036,84.667 115.87,105.501 136.703,84.667 157.536,105.501 "/>
<path fill="none" stroke="#FD8177" stroke-width="1.1644" stroke-linecap="round" stroke-linejoin="round" stroke-miterlimit="10" d="
	M733.62,271.217c9.986,11.372,8.865,28.687-2.506,38.671c-11.369,9.985-28.683,8.863-38.668-2.506L733.62,271.217z"/>
<path fill="none" stroke="#FD8177" stroke-width="1.0116" stroke-linecap="round" stroke-linejoin="round" stroke-miterlimit="10" d="
	M730.977,273.539c8.679,9.88,7.701,24.92-2.178,33.596c-9.879,8.68-24.918,7.703-33.595-2.176"/>
<g>
	
		<path fill="none" stroke="#FD8177" stroke-width="0.6597" stroke-linecap="round" stroke-linejoin="round" stroke-miterlimit="10" d="
		M718.387,295.184c0,0,1.295,4.929,3.008,3.425C723.106,297.104,718.387,295.184,718.387,295.184z"/>
	
		<path fill="none" stroke="#FD8177" stroke-width="0.6597" stroke-linecap="round" stroke-linejoin="round" stroke-miterlimit="10" d="
		M724.399,287.073c0,0,3.256,3.915,4.172,1.829C729.485,286.816,724.399,287.073,724.399,287.073z"/>
	
		<path fill="none" stroke="#FD8177" stroke-width="0.6597" stroke-linecap="round" stroke-linejoin="round" stroke-miterlimit="10" d="
		M709.415,300.231c0,0,3.465,3.732,1.277,4.371C708.503,305.243,709.415,300.231,709.415,300.231z"/>
</g>
<rect x="668.462" y="60.897" transform="matrix(-0.5183 -0.8552 0.8552 -0.5183 943.5522 706.2157)" fill="#76E1A6" width="4.43" height="52.931"/>
<rect x="303.397" y="471.547" transform="matrix(0.6538 -0.7567 0.7567 0.6538 -259.3362 398.3357)" fill="#FF80A1" width="4.43" height="22.02"/>
<rect x="704.404" y="65.948" transform="matrix(0.8468 0.5319 -0.5319 0.8468 149.2025 -364.0872)" fill="#A9CAFF" width="4.431" height="22.017"/>
<rect x="144.912" y="86.092" transform="matrix(0.481 0.8767 -0.8767 0.481 161.4871 -78.5935)" fill="#FF80A1" width="4.43" height="22.019"/>
</svg>
