<?xml version="1.0" encoding="utf-8"?>
<!-- Generator: Adobe Illustrator 16.0.0, SVG Export Plug-In . SVG Version: 6.00 Build 0)  -->
<!DOCTYPE svg PUBLIC "-//W3C//DTD SVG 1.1//EN" "http://www.w3.org/Graphics/SVG/1.1/DTD/svg11.dtd">
<svg version="1.1" id="Layer_1" xmlns="http://www.w3.org/2000/svg" xmlns:xlink="http://www.w3.org/1999/xlink" x="0px" y="0px"
	 width="1190.55px" height="552px" viewBox="0 0 1190.55 552" enable-background="new 0 0 1190.55 552" xml:space="preserve">
<path fill="none" stroke="#76E1A6" stroke-width="2.0237" stroke-miterlimit="10" d="M902.15,470.736
	c-9.107,0-9.107-10.338-18.213-10.338c-9.107,0-9.107,10.338-18.215,10.338c-9.105,0-9.105-10.338-18.213-10.338
	c-9.104,0-9.104,10.338-18.211,10.338c-9.105,0-9.105-10.338-18.213-10.338c-9.105,0-9.105,10.338-18.213,10.338
	c-9.105,0-9.105-10.338-18.213-10.338"/>
<path fill="none" stroke="#76E1A6" stroke-miterlimit="10" d="M228.283,266.252c0,0,7.673-3.923,13.989-0.053
	c5.21,3.191,9.495,2.479,9.495,2.479"/>
<polyline fill="none" stroke="#76E1A6" stroke-miterlimit="10" points="235.278,284.953 228.426,239.844 214.008,248.837 "/>
<polygon fill="none" stroke="#76E1A6" stroke-miterlimit="10" points="226.855,253.976 254.263,253.976 250.409,288.664 
	230.71,288.664 "/>
<circle fill="none" stroke="#76E1A6" stroke-miterlimit="10" cx="254.245" cy="254.208" r="8.903"/>
<polygon fill="none" stroke="#FFB2AC" stroke-width="1.5001" stroke-miterlimit="10" points="331.719,82.446 327.692,106.862 
	353.954,98.47 "/>
<polyline fill="none" stroke="#A9D4FF" stroke-width="2.3148" stroke-miterlimit="10" points="-5.034,150.256 15.8,129.422 
	36.633,150.256 57.466,129.422 78.3,150.256 99.133,129.422 119.966,150.256 "/>
<path fill="none" stroke="#A9D4FF" stroke-miterlimit="10" d="M851.267,125.997v-34.3c0-7.104-5.758-12.862-12.861-12.862l0,0
	c-7.104,0-12.863,5.758-12.863,12.862v34.3h4.289H851.267z"/>
<path fill="none" stroke="#A9D4FF" stroke-miterlimit="10" d="M842.693,125.997v12.862c0,2.368-1.92,4.288-4.287,4.288l0,0
	c-2.367,0-4.287-1.919-4.287-4.288v-12.862"/>
<g>
	<path fill="none" stroke="#A9D4FF" stroke-miterlimit="10" d="M833.404,118.851c0,1.184-0.959,2.144-2.145,2.144l0,0
		c-1.184,0-2.145-0.959-2.145-2.144V94.873c0-1.184,0.961-2.144,2.145-2.144l0,0c1.186,0,2.145,0.96,2.145,2.144V118.851z"/>
	<path fill="none" stroke="#A9D4FF" stroke-miterlimit="10" d="M840.548,118.851c0,1.184-0.959,2.144-2.143,2.144l0,0
		c-1.188,0-2.146-0.959-2.146-2.144V94.873c0-1.184,0.961-2.144,2.146-2.144l0,0c1.184,0,2.143,0.96,2.143,2.144V118.851z"/>
	<path fill="none" stroke="#A9D4FF" stroke-miterlimit="10" d="M847.695,118.851c0,1.184-0.959,2.144-2.145,2.144l0,0
		c-1.184,0-2.143-0.959-2.143-2.144V94.873c0-1.184,0.959-2.144,2.143-2.144l0,0c1.186,0,2.145,0.96,2.145,2.144V118.851z"/>
</g>
<path fill="none" stroke="#FD8177" stroke-width="1.1644" stroke-linecap="round" stroke-linejoin="round" stroke-miterlimit="10" d="
	M986.093,299.359c9.986,11.372,8.865,28.685-2.506,38.671c-11.369,9.985-28.682,8.863-38.668-2.506L986.093,299.359z"/>
<path fill="none" stroke="#FD8177" stroke-width="1.0116" stroke-linecap="round" stroke-linejoin="round" stroke-miterlimit="10" d="
	M983.451,301.682c8.678,9.88,7.701,24.92-2.178,33.596c-9.879,8.678-24.918,7.703-33.594-2.176"/>
<g>
	
		<path fill="none" stroke="#FD8177" stroke-width="0.6597" stroke-linecap="round" stroke-linejoin="round" stroke-miterlimit="10" d="
		M970.861,323.326c0,0,1.295,4.927,3.008,3.423C975.58,325.246,970.861,323.326,970.861,323.326z"/>
	
		<path fill="none" stroke="#FD8177" stroke-width="0.6597" stroke-linecap="round" stroke-linejoin="round" stroke-miterlimit="10" d="
		M976.873,315.216c0,0,3.256,3.916,4.172,1.83C981.958,314.96,976.873,315.216,976.873,315.216z"/>
	
		<path fill="none" stroke="#FD8177" stroke-width="0.6597" stroke-linecap="round" stroke-linejoin="round" stroke-miterlimit="10" d="
		M961.888,328.374c0,0,3.465,3.734,1.277,4.373C960.976,333.386,961.888,328.374,961.888,328.374z"/>
</g>
<rect x="1085.236" y="146.7" transform="matrix(-0.5186 -0.855 0.855 -0.5186 1510.2563 1177.7476)" fill="#76E1A6" width="2.853" height="34.079"/>
<rect x="435.39" y="459.727" transform="matrix(0.6538 -0.7567 0.7567 0.6538 -204.6905 494.1213)" fill="#FF80A1" width="4.43" height="22.018"/>
<rect x="1108.419" y="149.929" transform="matrix(0.8469 0.5318 -0.5318 0.8469 253.4371 -566.1542)" fill="#A9CAFF" width="2.853" height="14.175"/>
<rect x="107.344" y="130.826" transform="matrix(0.4811 0.8767 -0.8767 0.4811 181.1927 -22.4477)" fill="#FF80A1" width="4.43" height="22.019"/>
<polygon fill="none" stroke="#FFABBF" stroke-width="1.7332" stroke-miterlimit="10" points="171.997,407.764 179.328,430.5 
	193.351,411.185 "/>
</svg>
