<?xml version="1.0" encoding="utf-8"?>
<!-- Generator: Adobe Illustrator 16.0.0, SVG Export Plug-In . SVG Version: 6.00 Build 0)  -->
<!DOCTYPE svg PUBLIC "-//W3C//DTD SVG 1.1//EN" "http://www.w3.org/Graphics/SVG/1.1/DTD/svg11.dtd">
<svg version="1.1" id="Layer_1" xmlns="http://www.w3.org/2000/svg" xmlns:xlink="http://www.w3.org/1999/xlink" x="0px" y="0px"
	 width="787.775px" height="552px" viewBox="0 0 787.775 552" enable-background="new 0 0 787.775 552" xml:space="preserve">
<path fill="none" stroke="#76E1A6" stroke-width="2.0237" stroke-miterlimit="10" d="M676.83,478.854
	c-9.106,0-9.106-10.338-18.213-10.338s-9.106,10.338-18.215,10.338c-9.104,0-9.104-10.338-18.213-10.338
	c-9.104,0-9.104,10.338-18.211,10.338c-9.105,0-9.105-10.338-18.213-10.338c-9.105,0-9.105,10.338-18.214,10.338
	c-9.104,0-9.104-10.338-18.213-10.338"/>
<path fill="none" stroke="#76E1A6" stroke-miterlimit="10" d="M134.108,359.059c0,0,7.673-3.923,13.989-0.053
	c5.21,3.191,9.495,2.479,9.495,2.479"/>
<polyline fill="none" stroke="#76E1A6" stroke-miterlimit="10" points="141.103,377.759 134.251,332.65 119.833,341.644 "/>
<polygon fill="none" stroke="#76E1A6" stroke-miterlimit="10" points="132.68,346.782 160.089,346.782 156.234,381.47 
	136.535,381.47 "/>
<circle fill="none" stroke="#76E1A6" stroke-miterlimit="10" cx="160.07" cy="347.015" r="8.903"/>
<polygon fill="none" stroke="#FFB2AC" stroke-width="1.5001" stroke-miterlimit="10" points="379.587,46.406 375.559,70.822 
	401.821,62.43 "/>
<polyline fill="none" stroke="#A9D4FF" stroke-width="2.3148" stroke-miterlimit="10" points="32.536,105.501 53.37,84.667 
	74.203,105.501 95.036,84.667 115.87,105.501 136.703,84.667 157.536,105.501 "/>
<path fill="none" stroke="#FD8177" stroke-width="1.1644" stroke-linecap="round" stroke-linejoin="round" stroke-miterlimit="10" d="
	M733.62,271.217c9.986,11.372,8.865,28.686-2.506,38.671c-11.369,9.985-28.682,8.863-38.668-2.506L733.62,271.217z"/>
<path fill="none" stroke="#FD8177" stroke-width="1.0116" stroke-linecap="round" stroke-linejoin="round" stroke-miterlimit="10" d="
	M730.977,273.539c8.678,9.88,7.701,24.92-2.178,33.596c-9.879,8.679-24.918,7.703-33.595-2.176"/>
<g>
	
		<path fill="none" stroke="#FD8177" stroke-width="0.6597" stroke-linecap="round" stroke-linejoin="round" stroke-miterlimit="10" d="
		M718.387,295.184c0,0,1.295,4.928,3.008,3.424C723.106,297.104,718.387,295.184,718.387,295.184z"/>
	
		<path fill="none" stroke="#FD8177" stroke-width="0.6597" stroke-linecap="round" stroke-linejoin="round" stroke-miterlimit="10" d="
		M724.399,287.073c0,0,3.256,3.915,4.172,1.829C729.485,286.816,724.399,287.073,724.399,287.073z"/>
	
		<path fill="none" stroke="#FD8177" stroke-width="0.6597" stroke-linecap="round" stroke-linejoin="round" stroke-miterlimit="10" d="
		M709.415,300.231c0,0,3.465,3.733,1.277,4.372C708.503,305.243,709.415,300.231,709.415,300.231z"/>
</g>
<rect x="668.474" y="60.891" transform="matrix(0.5183 0.8552 -0.8552 0.5183 397.7662 -531.4873)" fill="#76E1A6" width="4.43" height="52.932"/>
<rect x="303.41" y="471.565" transform="matrix(-0.6538 0.7567 -0.7567 -0.6538 870.5948 566.7984)" fill="#FF80A1" width="4.43" height="22.02"/>
<rect x="704.419" y="65.922" transform="matrix(-0.8468 -0.5319 0.5319 -0.8468 1264.0781 517.9603)" fill="#A9CAFF" width="4.431" height="22.017"/>
<rect x="144.911" y="86.088" transform="matrix(-0.481 -0.8767 0.8767 -0.481 132.7688 272.7908)" fill="#FF80A1" width="4.43" height="22.019"/>
</svg>
