<?xml version="1.0" encoding="utf-8"?>
<!-- Generator: Adobe Illustrator 16.0.0, SVG Export Plug-In . SVG Version: 6.00 Build 0)  -->
<!DOCTYPE svg PUBLIC "-//W3C//DTD SVG 1.1//EN" "http://www.w3.org/Graphics/SVG/1.1/DTD/svg11.dtd">
<svg version="1.1" id="Layer_1" xmlns="http://www.w3.org/2000/svg" xmlns:xlink="http://www.w3.org/1999/xlink" x="0px" y="0px"
	 width="847px" height="552px" viewBox="0 0 847 552" enable-background="new 0 0 847 552" xml:space="preserve">
<path fill="none" stroke="#D4E0FC" stroke-width="3.6608" stroke-miterlimit="10" d="M222.897,99.519
	c-11.113,0-11.113-12.615-22.226-12.615c-11.111,0-11.111,12.615-22.226,12.615s-11.112-12.615-22.225-12.615
	c-11.109,0-11.109,12.615-22.224,12.615c-11.111,0-11.109-12.615-22.226-12.615c-11.109,0-11.109,12.615-22.225,12.615
	c-11.109,0-11.109-12.615-22.224-12.615"/>
<polygon fill="none" stroke="#FFB2AC" stroke-width="2" stroke-miterlimit="10" points="509.752,36.242 506.62,55.219 
	527.033,48.696 "/>
<polygon fill="#FFD4D9" points="253.409,358.474 230.588,360.699 244.372,382.208 "/>
<polyline fill="none" stroke="#BACAF7" stroke-width="3.6656" stroke-miterlimit="10" points="642.037,440.102 661.827,420.313 
	681.614,440.102 701.4,420.313 721.187,440.102 740.972,420.313 760.761,440.102 "/>
<rect x="48.032" y="449.211" transform="matrix(-0.7562 -0.6544 0.6544 -0.7562 -212.7722 840.2611)" fill="#B8FFE5" width="4.249" height="21.119"/>
</svg>
