<?xml version="1.0" encoding="utf-8"?>
<!-- Generator: Adobe Illustrator 16.0.0, SVG Export Plug-In . SVG Version: 6.00 Build 0)  -->
<!DOCTYPE svg PUBLIC "-//W3C//DTD SVG 1.1//EN" "http://www.w3.org/Graphics/SVG/1.1/DTD/svg11.dtd">
<svg version="1.1" id="Layer_1" xmlns="http://www.w3.org/2000/svg" xmlns:xlink="http://www.w3.org/1999/xlink" x="0px" y="0px"
	 width="766.775px" height="552px" viewBox="0 0 766.775 552" enable-background="new 0 0 766.775 552" xml:space="preserve">
<polygon fill="none" stroke="#FFFFFF" stroke-width="3" stroke-miterlimit="10" points="429.833,34.828 425.043,59.104 
	451.554,51.542 "/>
<polyline fill="none" stroke="#FFFFFF" stroke-width="3" stroke-miterlimit="10" points="-29.093,156.222 -8.259,135.388 
	12.574,156.222 33.407,135.388 54.241,156.222 75.074,135.388 95.907,156.222 "/>
<rect x="293.37" y="461.995" transform="matrix(0.6539 -0.7566 0.7566 0.6539 -255.5649 387.339)" fill="#FF5F75" width="4.427" height="22.02"/>
<rect x="708.133" y="317.265" transform="matrix(-0.6539 0.7566 -0.7566 -0.6539 1423.2002 5.4735)" fill="#FFFFFF" width="4.43" height="22.021"/>
<rect x="31.148" y="312.372" transform="matrix(0.9645 -0.2641 0.2641 0.9645 -84.2134 20.2899)" fill="#6EFFAC" width="4.43" height="22.018"/>
<rect x="85.578" y="134.783" transform="matrix(0.481 0.8767 -0.8767 0.481 173.382 -1.305)" fill="#FF5F75" width="4.43" height="22.02"/>
<circle fill="none" stroke="#6EFFAC" stroke-width="5" stroke-miterlimit="10" cx="763.888" cy="415.813" r="14.687"/>
<g>
	<polygon fill="none" stroke="#FFFFFF" stroke-width="2.3" stroke-miterlimit="10" points="671.101,105.715 661.542,134.922 
		651.983,105.715 	"/>
	<path fill="none" stroke="#6EFFAC" stroke-width="2.3" stroke-miterlimit="10" d="M651.755,105.721
		c-2.01-1.483-3.313-3.867-3.313-6.556c0-4.497,3.646-8.142,8.143-8.142c2.812,0,5.289,1.423,6.752,3.59
		c0.877,1.3,1.392,2.866,1.392,4.552"/>
	<path fill="none" stroke="#6EFFAC" stroke-width="2.3" stroke-miterlimit="10" d="M670.868,105.721
		c1.965-1.483,3.24-3.867,3.24-6.556c0-4.497-3.566-8.142-7.966-8.142c-1.575,0-3.045,0.468-4.28,1.275"/>
	<path fill="none" stroke="#6EFFAC" stroke-width="2.3" stroke-miterlimit="10" d="M653.396,91.289c0-4.252,3.449-7.7,7.701-7.7
		c4.254,0,7.701,3.448,7.701,7.7"/>
</g>
<path fill="none" stroke="#FFFFFF" stroke-width="3" stroke-miterlimit="10" d="M505.162,466.869c7.235,0,7.235-8.146,14.469-8.146
	c7.235,0,7.235,8.146,14.468,8.146c7.234,0,7.234-8.146,14.469-8.146c7.233,0,7.233,8.146,14.468,8.146
	c7.233,0,7.231-8.146,14.467-8.146c7.233,0,7.233,8.146,14.472,8.146c7.231,0,7.231-8.146,14.467-8.146"/>
<g>
	<g>
		<path fill="#6EFFAC" d="M111.484,395.144v2h0.001c4.245,0,8.555,0.706,12.849,2.104L83.95,439.578
			c-4.406-13.021-2.193-25.877,6.039-34.1c5.458-5.452,12.892-8.335,21.495-8.336V395.144 M111.483,395.144
			c-8.743,0.001-16.899,2.92-22.908,8.922c-9.716,9.703-11.268,24.919-5.406,39.119l44.805-44.747
			C122.496,396.254,116.878,395.144,111.483,395.144L111.483,395.144z"/>
	</g>
	<g>
		<path fill="none" stroke="#6EFFAC" stroke-width="2" stroke-miterlimit="10" d="M118.739,407.658
			c1.877,1.852,5.363,1.388,7.789-1.034c2.424-2.421,2.868-5.884,0.988-7.733"/>
		<path fill="none" stroke="#6EFFAC" stroke-width="2" stroke-miterlimit="10" d="M109.962,416.427
			c1.877,1.853,5.363,1.389,7.786-1.035c2.424-2.421,2.868-5.882,0.991-7.732"/>
		<path fill="none" stroke="#6EFFAC" stroke-width="2" stroke-miterlimit="10" d="M101.181,425.194
			c1.879,1.851,5.365,1.385,7.789-1.035c2.426-2.421,2.87-5.881,0.993-7.732"/>
		<path fill="none" stroke="#6EFFAC" stroke-width="2" stroke-miterlimit="10" d="M92.404,433.96
			c1.877,1.852,5.363,1.388,7.789-1.032c2.424-2.422,2.868-5.883,0.988-7.732"/>
		<path fill="none" stroke="#6EFFAC" stroke-width="2" stroke-miterlimit="10" d="M83.626,442.729
			c1.875,1.853,5.363,1.389,7.787-1.032s2.868-5.884,0.991-7.735"/>
	</g>
	<path fill="none" stroke="#6EFFAC" stroke-width="2" stroke-miterlimit="10" d="M89.891,403.498c0,0,9.796,2.954,19.997,13.002"/>
	<path fill="none" stroke="#6EFFAC" stroke-width="2" stroke-miterlimit="10" d="M90.457,403.213c0,0,10.426-6.972,28.548,4.929"/>
	<path fill="none" stroke="#6EFFAC" stroke-width="2" stroke-miterlimit="10" d="M87.448,406.08c0,0-6.959,10.391,5.162,28.285"/>
	<path fill="none" stroke="#6EFFAC" stroke-width="2" stroke-miterlimit="10" d="M87.752,405.635c0,0,3.042,9.699,13.241,19.747"/>
	
		<line fill="none" stroke="#6EFFAC" stroke-width="2" stroke-miterlimit="10" x1="108.969" y1="424.159" x2="136.732" y2="451.513"/>
</g>
</svg>
