<?xml version="1.0" encoding="utf-8"?>
<!-- Generator: Adobe Illustrator 16.0.0, SVG Export Plug-In . SVG Version: 6.00 Build 0)  -->
<!DOCTYPE svg PUBLIC "-//W3C//DTD SVG 1.1//EN" "http://www.w3.org/Graphics/SVG/1.1/DTD/svg11.dtd">
<svg version="1.1" id="Layer_1" xmlns="http://www.w3.org/2000/svg" xmlns:xlink="http://www.w3.org/1999/xlink" x="0px" y="0px"
	 width="1190.55px" height="552px" viewBox="0 0 1190.55 552" enable-background="new 0 0 1190.55 552" xml:space="preserve">
<path fill="none" stroke="#FFFFFF" stroke-width="3" stroke-miterlimit="10" d="M1010.304,442.406
	c-9.107,0-9.107-10.338-18.213-10.338c-9.107,0-9.107,10.338-18.215,10.338c-9.105,0-9.105-10.338-18.213-10.338
	c-9.105,0-9.105,10.338-18.211,10.338s-9.105-10.338-18.213-10.338c-9.105,0-9.105,10.338-18.215,10.338
	c-9.104,0-9.104-10.338-18.213-10.338"/>
<circle fill="none" stroke="#FFFFFF" stroke-width="4" stroke-miterlimit="10" cx="109.877" cy="377.881" r="31.162"/>
<polygon fill="none" stroke="#FFFFFF" stroke-width="3" stroke-miterlimit="10" points="436.854,117.054 432.827,141.47 
	459.089,133.078 "/>
<polyline fill="none" stroke="#FFFFFF" stroke-width="3" stroke-miterlimit="10" points="-11.605,203.468 9.229,182.634 
	30.062,203.468 50.895,182.634 71.729,203.468 92.562,182.634 113.395,203.468 "/>
<rect x="964.371" y="126.429" transform="matrix(0.5185 0.8551 -0.8551 0.5185 596.1724 -752.897)" fill="#6EFFAC" width="4.43" height="52.932"/>
<rect x="456.89" y="468.294" transform="matrix(-0.6538 0.7567 -0.7567 -0.6538 1121.9408 445.2511)" fill="#FF5F75" width="4.43" height="22.02"/>
<rect x="758.542" y="141.954" transform="matrix(-0.8131 -0.5822 0.5822 -0.8131 1290.2422 720.2357)" fill="#FF5F75" width="4.431" height="22.02"/>
<rect x="1141.819" y="334.379" transform="matrix(0.6539 -0.7566 0.7566 0.6539 134.6593 985.1298)" fill="#FFFFFF" width="4.43" height="22.019"/>
<rect x="99.415" y="336.707" transform="matrix(-0.9645 0.2641 -0.2641 -0.9645 291.4856 656.2444)" fill="#6EFFAC" width="4.43" height="22.018"/>
<rect x="1000.318" y="131.455" transform="matrix(-0.8468 -0.5319 0.5319 -0.8468 1775.6796 796.3871)" fill="#6EFFAC" width="4.431" height="22.017"/>
<rect x="103.063" y="182.045" transform="matrix(-0.4811 -0.8767 0.8767 -0.4811 -13.3183 378.2272)" fill="#FF5F75" width="4.43" height="22.02"/>
<circle fill="none" stroke="#6EFFAC" stroke-width="3" stroke-miterlimit="10" cx="1010.304" cy="444.907" r="14.688"/>
<circle fill="none" stroke="#6EFFAC" stroke-width="2" stroke-miterlimit="10" cx="257.514" cy="459.595" r="9.688"/>
</svg>
