<?xml version="1.0" encoding="utf-8"?>
<!-- Generator: Adobe Illustrator 16.0.0, SVG Export Plug-In . SVG Version: 6.00 Build 0)  -->
<!DOCTYPE svg PUBLIC "-//W3C//DTD SVG 1.1//EN" "http://www.w3.org/Graphics/SVG/1.1/DTD/svg11.dtd">
<svg version="1.1" id="Warstwa_1" xmlns="http://www.w3.org/2000/svg" xmlns:xlink="http://www.w3.org/1999/xlink" x="0px" y="0px"
	 width="404.852px" height="190.914px" viewBox="0 0 404.852 190.914" enable-background="new 0 0 404.852 190.914"
	 xml:space="preserve">
<g>
	<path fill="#FFFFFF" d="M192.352,26.992c-0.101-0.083-0.177-0.168-0.241-0.254c-2.912,3.634-5.823,7.272-8.672,10.954l-4.571,6.039
		c-0.27,0.365-0.532,0.734-0.799,1.101c5.147-5.637,10.319-11.252,15.513-16.848C193.171,27.654,192.758,27.327,192.352,26.992z"/>
	<path fill="#FFFFFF" d="M196.166,105.006c29.003,0,52.509-23.506,52.509-52.503S225.169,0,196.166,0
		c-28.997,0-52.503,23.506-52.503,52.503S167.169,105.006,196.166,105.006z M167.93,55.995c1.407-1.56,3.354-4.25,3.627-4.669
		c1.795-2.581,3.731-5.157,5.606-7.676c5.778-7.762,10.487-14.255,17.281-22.837c0.274-0.347,2.688-0.363,2.629-0.288
		c-1.21,1.524-2.427,3.043-3.644,4.563c0.245,0.031,0.489,0.125,0.709,0.307c0.349,0.288,0.704,0.567,1.056,0.851
		c1.079-1.16,2.155-2.324,3.236-3.482c0.791-0.849,2.857,0.784,2.099,1.598c-1.096,1.175-2.187,2.354-3.279,3.531
		c2.483,1.959,4.994,3.886,7.426,5.905c6.706,5.569,13.023,11.649,19.472,17.507c1.271,1.154-1.385,2.636-2.528,1.598
		c-6.482-5.887-12.074-12.047-18.85-17.604c-0.156-0.128-0.314-0.252-0.473-0.38c4.919,4.969,9.838,9.938,14.757,14.906
		c1.045,1.057,0.715,2.416,0.716,3.81c0,3.005,0.001,6.01,0.002,9.015c0.003,4.95,0.005,9.9,0.007,14.85
		c-0.008,0.098-0.06,0.153-0.157,0.166c-10.383,1.009-20.911,1.854-31.346,1.628c-3.435-0.075-8.924,0.343-11.31-2.754
		c-0.711-0.921-0.466-1.987-0.5-3.107c-0.082-2.683-0.272-5.359-0.646-8.019c-0.474-3.368-1.112-6.699-1.35-10.085
		c-0.081-0.042-0.164-0.094-0.249-0.152c-0.73,0.807-1.464,1.611-2.192,2.419C169.254,58.453,167.181,56.825,167.93,55.995z"/>
	<path fill="#FFFFFF" d="M16.918,132.546c-2.035-1.039-4.219-1.768-6.552-2.184c-2.334-0.416-4.449-0.531-6.344-0.347l0.139-3.813
		c-1.294-0.832-2.288-1.017-2.981-0.555c-0.693,0.463-1.086,1.387-1.179,2.773l2.357,33.975c-0.185,0.602-0.243,1.226-0.173,1.872
		c0.069,0.647,0.208,1.226,0.416,1.733s0.485,0.89,0.832,1.145c0.347,0.253,0.728,0.288,1.144,0.104
		c2.125-1.248,4.31-2.646,6.552-4.195c2.242-1.548,4.31-3.304,6.206-5.27c1.895-1.964,3.478-4.194,4.75-6.69
		c1.271-2.496,1.976-5.315,2.115-8.459c-0.046-2.357-0.763-4.368-2.149-6.032S18.952,133.587,16.918,132.546z M18.825,148.598
		c-0.948,1.711-2.115,3.362-3.501,4.958c-1.387,1.594-2.854,3.063-4.403,4.402c-1.549,1.341-2.854,2.357-3.917,3.051
		c-0.277-0.555-0.52-1.49-0.728-2.809c-0.208-1.316-0.405-2.842-0.589-4.576c-0.185-1.732-0.336-3.559-0.451-5.477
		c-0.116-1.918-0.22-3.756-0.312-5.513c-0.093-1.756-0.163-3.328-0.208-4.715c-0.046-1.387-0.046-2.427,0-3.12
		c0.416-0.277,1.075-0.451,1.976-0.52c0.901-0.07,1.917,0.012,3.051,0.242c1.132,0.231,2.311,0.59,3.536,1.074
		c1.224,0.486,2.333,1.122,3.328,1.907c0.994,0.786,1.826,1.711,2.496,2.773c0.669,1.063,1.005,2.266,1.005,3.605
		C20.2,145.317,19.771,146.888,18.825,148.598z"/>
	<path fill="#FFFFFF" d="M44.236,133.587c-0.832-1.734-1.872-3.097-3.12-4.092c-1.248-0.993-2.681-1.397-4.299-1.213
		c-1.387,0.139-2.624,0.786-3.709,1.941c-1.086,1.156-2.011,2.624-2.773,4.402c-0.763,1.78-1.352,3.791-1.768,6.033
		s-0.659,4.53-0.728,6.863c-0.069,2.335,0.045,4.601,0.347,6.795c0.3,2.196,0.773,4.16,1.421,5.895
		c0.647,1.732,1.501,3.119,2.565,4.16c1.063,1.039,2.311,1.56,3.744,1.56c1.848,0,3.443-0.555,4.784-1.664
		c1.34-1.109,2.461-2.576,3.363-4.403c0.901-1.825,1.571-3.894,2.011-6.205c0.439-2.311,0.659-4.656,0.659-7.037
		s-0.208-4.715-0.624-7.004C45.692,137.332,45.068,135.32,44.236,133.587z M42.954,146.968c-0.116,2.521-0.451,4.854-1.005,7.004
		c-0.555,2.148-1.329,3.929-2.323,5.338c-0.995,1.411-2.161,2.069-3.501,1.977c-0.787-0.046-1.48-0.496-2.08-1.352
		c-0.601-0.855-1.075-1.965-1.421-3.328s-0.601-2.9-0.763-4.611c-0.163-1.71-0.208-3.467-0.139-5.27s0.231-3.559,0.485-5.27
		c0.253-1.71,0.612-3.235,1.075-4.576c0.461-1.34,1.016-2.427,1.664-3.259c0.647-0.832,1.387-1.248,2.219-1.248
		c1.432-0.046,2.6,0.659,3.501,2.114c0.901,1.457,1.536,3.271,1.907,5.443C42.942,142.104,43.068,144.45,42.954,146.968z"/>
	<path fill="#FFFFFF" d="M85.041,157.126c-0.024-2.403-0.035-4.876-0.035-7.419c0-2.542,0-5.062,0-7.558s-0.093-4.726-0.277-6.691
		c-0.185-1.964-0.475-3.559-0.867-4.783c-0.393-1.225-0.96-1.838-1.699-1.838c-0.416,0.093-0.728,0.093-0.936,0
		c-0.208-0.092-0.462-0.104-0.763-0.035c-0.301,0.07-0.717,0.324-1.248,0.764c-0.532,0.439-1.317,1.225-2.357,2.357
		s-2.392,2.716-4.056,4.749c-1.664,2.034-3.768,4.669-6.31,7.904c-2.219-2.08-4.125-4.345-5.72-6.795
		c-1.595-2.449-3.179-4.854-4.75-7.211c-0.139-0.092-0.428-0.288-0.867-0.589c-0.44-0.301-0.936-0.486-1.491-0.555
		c-0.555-0.07-1.109,0.068-1.664,0.416c-0.555,0.346-1.04,1.098-1.456,2.253c0.092,0.509,0.115,1.664,0.069,3.467
		c-0.046,1.803-0.081,4.114-0.104,6.934c-0.024,2.82-0.035,6.113-0.035,9.88c0,3.769,0.115,7.894,0.347,12.377
		c0,0.879,0.243,1.514,0.728,1.906s1.016,0.566,1.595,0.521c0.578-0.047,1.085-0.301,1.525-0.763
		c0.439-0.463,0.635-1.109,0.589-1.941c0-0.832-0.024-1.977-0.069-3.432c-0.046-1.457-0.104-3.063-0.173-4.819
		c-0.069-1.756-0.15-3.594-0.243-5.513c-0.093-1.917-0.173-3.778-0.243-5.581s-0.128-3.455-0.173-4.958
		c-0.046-1.501-0.069-2.715-0.069-3.64c2.034,2.635,3.732,4.762,5.096,6.379c1.363,1.618,2.496,2.878,3.397,3.778
		c0.901,0.902,1.595,1.515,2.08,1.838c0.485,0.324,0.867,0.485,1.144,0.485c0.555,0.37,1.271,0.197,2.149-0.521
		c0.877-0.716,1.93-1.768,3.155-3.154c1.224-1.387,2.576-3.016,4.056-4.889c1.479-1.871,3.096-3.778,4.854-5.72
		c0.092,0.647,0.115,1.757,0.069,3.328c-0.046,1.572-0.081,3.605-0.104,6.102c-0.024,2.496-0.012,5.408,0.035,8.736
		c0.045,3.328,0.231,7.05,0.555,11.163c0.045,1.063,0.335,1.78,0.867,2.149c0.531,0.369,1.085,0.485,1.664,0.347
		c0.578-0.139,1.085-0.485,1.525-1.04c0.439-0.555,0.612-1.248,0.52-2.08C85.167,161.633,85.063,159.531,85.041,157.126z"/>
	<path fill="#FFFFFF" d="M108.025,157.923c-0.232-0.3-0.532-0.473-0.901-0.52c-0.371-0.046-0.787,0.162-1.248,0.624
		c-0.232,0.231-0.485,0.589-0.763,1.075c-0.277,0.484-0.636,0.947-1.075,1.387c-0.44,0.439-0.982,0.774-1.629,1.005
		c-0.648,0.231-1.411,0.231-2.288,0c-0.925-0.23-1.733-0.809-2.427-1.733c-0.693-0.924-1.26-2.021-1.699-3.293
		c-0.44-1.271-0.787-2.623-1.04-4.057c-0.254-1.433-0.44-2.784-0.555-4.057c-0.116-1.271-0.15-2.392-0.104-3.362
		c0.045-0.971,0.139-1.595,0.277-1.872c1.479,0,2.992-0.115,4.542-0.347c1.548-0.23,2.947-0.67,4.195-1.317
		c1.248-0.646,2.264-1.536,3.051-2.67c0.786-1.132,1.179-2.6,1.179-4.402c0-0.878-0.128-1.722-0.381-2.531
		c-0.254-0.808-0.636-1.525-1.144-2.148c-0.509-0.625-1.133-1.121-1.872-1.491c-0.74-0.369-1.595-0.555-2.565-0.555
		c-1.757,0.093-3.201,0.485-4.333,1.179c-1.133,0.693-2.069,1.537-2.808,2.531c-0.74,0.994-1.352,2.08-1.837,3.258
		c-0.485,1.18-0.96,2.277-1.421,3.294c-0.832,0.047-1.456,0.243-1.872,0.589c-0.416,0.348-0.636,0.752-0.659,1.214
		c-0.024,0.463,0.139,0.96,0.485,1.491s0.843,1.028,1.491,1.49c-0.232,2.219-0.208,4.669,0.069,7.35
		c0.277,2.682,0.82,5.2,1.629,7.558c0.808,2.357,1.895,4.333,3.259,5.929c1.363,1.594,3.039,2.392,5.027,2.392
		c0.877,0,1.744-0.149,2.6-0.45c0.855-0.301,1.629-0.717,2.323-1.248s1.306-1.155,1.837-1.873c0.531-0.716,0.912-1.467,1.144-2.253
		c0.092-0.277,0.092-0.635,0-1.075C108.417,158.594,108.256,158.225,108.025,157.923z M96.828,134.662
		c0.855-1.155,1.779-2.021,2.773-2.6c0.994-0.578,1.93-0.751,2.808-0.521c0.877,0.231,1.387,1.109,1.525,2.635
		c0,1.063-0.336,1.907-1.005,2.53c-0.67,0.625-1.468,1.087-2.392,1.387c-0.925,0.302-1.872,0.451-2.843,0.451
		s-1.757-0.092-2.357-0.277C95.476,137.019,95.972,135.818,96.828,134.662z"/>
	<path fill="#FFFFFF" d="M133.472,157.265c-1.109,0.139-2.288,0.242-3.536,0.313c-1.248,0.068-2.555-0.081-3.917-0.451
		c-1.364-0.369-2.763-1.028-4.195-1.977c-1.433-0.946-2.912-2.392-4.438-4.333c-0.139-1.155,0.288-2.288,1.283-3.397
		c0.994-1.109,2.242-2.311,3.744-3.605c1.501-1.294,3.074-2.75,4.715-4.368c1.64-1.617,3.016-3.513,4.125-5.686
		c0.092-0.508,0.08-0.981-0.035-1.421c-0.116-0.439-0.301-0.786-0.555-1.041c-0.254-0.253-0.566-0.392-0.936-0.416
		c-0.371-0.022-0.763,0.104-1.179,0.382c-0.509,0.602-1.225,1.515-2.149,2.739c-0.925,1.225-1.941,2.496-3.051,3.813
		c-1.109,1.318-2.23,2.543-3.363,3.676c-1.133,1.133-2.161,1.884-3.085,2.253c0-0.739-0.035-1.722-0.104-2.946
		s-0.139-2.554-0.208-3.987c-0.069-1.433-0.128-2.912-0.173-4.438c-0.046-1.525-0.069-2.981-0.069-4.368
		c-0.185-0.369-0.485-0.646-0.901-0.832c-0.416-0.185-0.856-0.242-1.317-0.174c-0.462,0.07-0.891,0.29-1.283,0.659
		c-0.393,0.37-0.659,0.925-0.797,1.664c0.416,3.144,0.578,6.287,0.485,9.43c-0.093,3.144-0.243,6.264-0.451,9.36
		c-0.208,3.098-0.347,6.113-0.416,9.049s0.127,5.767,0.589,8.493c0.277,0.369,0.647,0.635,1.109,0.798
		c0.461,0.161,0.936,0.23,1.421,0.207s0.901-0.127,1.248-0.312c0.347-0.186,0.52-0.416,0.52-0.693l-0.416-9.776
		c1.248,0.509,2.484,1.145,3.709,1.906c1.224,0.764,2.484,1.503,3.779,2.219c1.293,0.718,2.623,1.307,3.987,1.769
		c1.363,0.463,2.854,0.624,4.472,0.485c0.971-0.323,1.675-0.751,2.115-1.283c0.439-0.53,0.693-1.063,0.763-1.594
		s-0.046-0.994-0.347-1.387C134.314,157.601,133.933,157.358,133.472,157.265z"/>
	<path fill="#FFFFFF" d="M199.584,127.312c-0.579-0.139-1.134-0.08-1.664,0.174c-0.532,0.254-0.822,0.751-0.867,1.49
		c-0.879,2.034-1.606,4.311-2.184,6.83c-0.579,2.52-1.109,5.096-1.596,7.73c-0.484,2.635-0.971,5.189-1.455,7.662
		c-0.486,2.473-1.075,4.68-1.769,6.621c-1.757-3.605-3.235-6.691-4.438-9.256c-1.203-2.566-2.208-4.691-3.016-6.379
		c-0.809-1.688-1.468-3.017-1.976-3.987c-0.509-0.971-0.948-1.687-1.317-2.149c-0.371-0.462-0.717-0.739-1.04-0.832
		c-0.324-0.092-0.693-0.092-1.109,0c-0.74,0.047-1.421,0.59-2.045,1.629c-0.624,1.041-1.213,2.357-1.768,3.953
		c-0.555,1.594-1.075,3.352-1.56,5.27s-0.948,3.79-1.387,5.615c-0.44,1.827-0.878,3.456-1.317,4.889
		c-0.44,1.434-0.867,2.474-1.283,3.12l-5.616-30.092c-0.371-0.601-0.787-1.017-1.248-1.248c-0.462-0.23-0.901-0.3-1.317-0.208
		c-0.416,0.093-0.763,0.336-1.04,0.729s-0.416,0.913-0.416,1.56c0.045,0.416,0.219,1.41,0.52,2.981
		c0.3,1.572,0.659,3.444,1.075,5.616c0.416,2.173,0.89,4.519,1.421,7.038c0.531,2.52,1.04,4.935,1.525,7.245
		c0.485,2.312,0.936,4.38,1.352,6.206s0.739,3.132,0.971,3.917c0.832,1.525,1.803,2.23,2.912,2.114
		c1.109-0.114,1.987-0.75,2.635-1.906c0.231-0.555,0.508-1.409,0.832-2.565c0.323-1.155,0.682-2.449,1.075-3.883
		c0.392-1.433,0.786-2.912,1.179-4.438c0.392-1.525,0.808-2.97,1.248-4.333c0.439-1.363,0.867-2.566,1.283-3.605
		c0.416-1.041,0.808-1.745,1.179-2.115c1.063,1.018,2.034,2.3,2.912,3.848c0.877,1.55,1.722,3.202,2.531,4.958
		c0.808,1.757,1.56,3.514,2.253,5.27c0.693,1.757,1.375,3.328,2.046,4.715c0.669,1.387,1.34,2.496,2.01,3.328
		s1.375,1.201,2.115,1.109c0.555,0.139,1.098-0.565,1.629-2.114s1.051-3.56,1.561-6.033c0.508-2.472,1.04-5.188,1.595-8.146
		c0.555-2.958,1.132-5.801,1.733-8.528c0.6-2.727,1.236-5.131,1.906-7.211s1.422-3.443,2.254-4.091c0-0.646-0.242-1.189-0.729-1.629
		C200.693,127.74,200.161,127.451,199.584,127.312z"/>
	<path fill="#FFFFFF" d="M262.159,109.562c5.593-0.323,9.974-0.462,13.14-0.416c3.166,0.047,5.211-0.069,6.137-0.347
		c0.971-0.369,1.652-0.832,2.045-1.387s0.59-1.086,0.59-1.595c0-0.508-0.186-0.947-0.555-1.317c-0.371-0.37-0.855-0.555-1.457-0.555
		c-5.547,0.555-10.816,0.925-15.809,1.109c-4.992,0.185-9.811,0.521-14.457,1.005c-4.645,0.486-9.129,1.307-13.451,2.462
		c-4.322,1.156-8.586,3.005-12.792,5.547c-0.555,0.693-0.786,1.41-0.693,2.149c0.093,0.74,0.37,1.329,0.832,1.768
		c0.462,0.44,1.04,0.648,1.733,0.625s1.34-0.428,1.941-1.214c2.264-1.664,5.721-3.166,10.365-4.507
		c4.646-1.34,10.619-2.334,17.924-2.981c0.877,6.056,1.375,12.319,1.49,18.79c0.115,6.472-0.104,12.735-0.658,18.79
		c-0.555,6.056-1.422,11.695-2.6,16.918c-1.18,5.223-2.625,9.66-4.334,13.313c-1.711,3.651-3.652,6.286-5.824,7.904
		c-2.174,1.617-4.553,1.825-7.142,0.624c-2.45-1.156-4.16-2.877-5.131-5.166c-0.971-2.287-1.353-4.899-1.144-7.834
		c0.207-2.937,0.946-6.045,2.219-9.326c1.271-3.281,2.888-6.482,4.854-9.604c1.964-3.119,4.229-6.008,6.795-8.666
		c2.564-2.658,5.258-4.819,8.077-6.483c1.017-0.601,1.71-1.294,2.08-2.08c0.37-0.785,0.496-1.502,0.382-2.149
		c-0.116-0.646-0.416-1.132-0.902-1.456c-0.484-0.323-1.074-0.323-1.768,0c-3.051,1.803-5.905,3.93-8.563,6.379
		c-2.659,2.45-5.051,5.073-7.177,7.87s-3.976,5.72-5.547,8.771s-2.785,6.056-3.64,9.014c-0.856,2.958-1.33,5.813-1.422,8.563
		c-0.094,2.749,0.277,5.245,1.109,7.488c0.832,2.241,2.138,4.16,3.918,5.754c1.778,1.596,4.102,2.692,6.968,3.294
		c2.496,0.555,4.772,0.335,6.829-0.659s3.929-2.589,5.617-4.783c1.687-2.196,3.178-4.912,4.472-8.147
		c1.294-3.236,2.403-6.854,3.328-10.851c0.925-3.998,1.652-8.286,2.185-12.862c0.53-4.576,0.889-9.302,1.074-14.179
		c0.184-4.877,0.184-9.822,0-14.838C263.014,119.281,262.668,114.37,262.159,109.562z"/>
	<path fill="#FFFFFF" d="M292.459,148.287c-0.186-3.213-0.289-6.46-0.313-9.742c-0.023-3.281-0.059-6.332-0.104-9.152
		c-0.139-0.323-0.406-0.577-0.797-0.763c-0.395-0.185-0.822-0.277-1.283-0.277c-0.463,0-0.891,0.081-1.283,0.243
		s-0.613,0.428-0.658,0.797c-0.094,0.786-0.242,2.08-0.451,3.883c-0.207,1.803-0.484,3.837-0.832,6.102
		c-0.346,2.266-0.762,4.623-1.248,7.072c-0.484,2.45-1.039,4.692-1.664,6.726c-0.623,2.034-1.316,3.722-2.08,5.062
		c-0.762,1.341-1.584,2.034-2.461,2.08c-0.602-0.23-1.121-0.981-1.561-2.254c-0.439-1.271-0.809-2.842-1.109-4.715
		c-0.301-1.871-0.543-3.951-0.729-6.24c-0.186-2.287-0.324-4.563-0.416-6.829c-0.092-2.265-0.139-4.403-0.139-6.413
		c0-2.012,0-3.71,0-5.097c-0.186-0.555-0.496-0.924-0.936-1.109c-0.439-0.185-0.891-0.243-1.352-0.173
		c-0.463,0.068-0.902,0.22-1.318,0.45c-0.416,0.231-0.693,0.509-0.832,0.832c-0.047,1.664-0.047,3.71,0,6.136
		c0.047,2.428,0.139,4.981,0.277,7.662c0.139,2.682,0.383,5.362,0.729,8.043c0.348,2.682,0.797,5.108,1.352,7.28
		c0.555,2.173,1.271,3.987,2.15,5.442c0.877,1.457,1.918,2.277,3.119,2.462c0.924,0,1.861-0.23,2.809-0.693
		c0.947-0.462,1.848-1.225,2.705-2.288c0.854-1.063,1.639-2.461,2.357-4.195c0.715-1.732,1.328-3.894,1.836-6.482
		c0.23,0.463,0.428,1.364,0.59,2.704c0.162,1.341,0.334,2.773,0.52,4.299s0.404,2.981,0.66,4.368
		c0.252,1.387,0.611,2.38,1.074,2.981c0.23,0.092,0.564,0.149,1.006,0.173c0.438,0.023,0.865-0.034,1.281-0.173
		s0.773-0.358,1.076-0.659c0.299-0.3,0.449-0.728,0.449-1.282c-0.693-1.941-1.225-4.333-1.594-7.177
		C292.92,154.527,292.643,151.5,292.459,148.287z"/>
	<path fill="#FFFFFF" d="M322.205,157.265c-3.375-1.664-6.102-3.212-8.182-4.646c-2.08-1.433-3.699-2.669-4.854-3.71
		c-1.156-1.039-1.941-1.895-2.357-2.564s-0.625-1.075-0.625-1.214c0.186,0.093,0.625,0.012,1.318-0.243
		c0.693-0.253,1.479-0.635,2.357-1.144c0.877-0.508,1.803-1.132,2.773-1.872c0.971-0.739,1.836-1.571,2.6-2.496
		c0.762-0.924,1.375-1.93,1.838-3.016c0.461-1.086,0.623-2.207,0.484-3.363c0-1.525-0.289-2.67-0.867-3.432
		c-0.578-0.764-1.328-1.26-2.252-1.491c-0.926-0.23-1.965-0.23-3.121,0c-1.156,0.231-2.311,0.566-3.467,1.005
		c-1.156,0.44-2.242,0.926-3.258,1.457c-1.018,0.531-1.873,1.005-2.566,1.421l-0.207-2.843c-0.139-0.462-0.416-0.729-0.832-0.797
		c-0.416-0.07-0.844,0.012-1.283,0.242c-0.439,0.231-0.844,0.59-1.213,1.074c-0.371,0.486-0.578,1.075-0.625,1.769
		c-0.047,1.341-0.035,2.89,0.035,4.646c0.068,1.757,0.127,3.629,0.174,5.616c0.045,1.988,0.104,4.021,0.172,6.102
		c0.07,2.08,0.105,4.091,0.105,6.032s-0.059,3.744-0.174,5.408s-0.289,3.074-0.52,4.229c-0.047,0.925,0.104,1.595,0.449,2.011
		c0.348,0.416,0.775,0.646,1.283,0.693c0.508,0.046,1.018-0.069,1.525-0.347s0.879-0.646,1.109-1.109l-0.346-16.017
		c1.432,0.555,2.969,1.422,4.609,2.6c1.641,1.18,3.248,2.393,4.82,3.641c1.57,1.248,3.039,2.404,4.402,3.467
		c1.363,1.063,2.531,1.78,3.502,2.149c0.693,0.186,1.363,0.173,2.01-0.034c0.646-0.209,1.168-0.497,1.561-0.867
		c0.393-0.369,0.578-0.773,0.555-1.213S322.805,157.589,322.205,157.265z M301.889,142.705l0.348-5.963
		c1.154-0.971,2.402-1.86,3.744-2.67c1.34-0.808,2.576-1.397,3.709-1.768c1.133-0.369,2.068-0.474,2.809-0.313
		c0.738,0.163,1.086,0.752,1.039,1.769c-0.369,1.248-0.947,2.369-1.732,3.362c-0.787,0.995-1.711,1.85-2.773,2.566
		c-1.064,0.717-2.219,1.329-3.467,1.837C304.316,142.035,303.09,142.427,301.889,142.705z"/>
	<path fill="#FFFFFF" d="M352.262,155.982c-0.07-2.749-0.174-5.569-0.313-8.459c-0.139-2.888-0.324-5.742-0.555-8.563
		c-0.23-2.819-0.508-5.408-0.832-7.766c0-0.601-0.174-1.074-0.52-1.422c-0.348-0.346-0.775-0.623-1.283-0.832
		c-0.508-0.207-1.039-0.346-1.594-0.416c-0.555-0.068-1.041-0.104-1.457-0.104c-1.479,0-2.992,0.624-4.541,1.872
		s-3.027,2.843-4.438,4.784s-2.738,4.114-3.986,6.518c-1.248,2.404-2.348,4.784-3.295,7.142s-1.688,4.53-2.219,6.518
		c-0.531,1.988-0.797,3.56-0.797,4.715c0,0.74,0.08,1.479,0.242,2.219c0.162,0.74,0.428,1.421,0.799,2.046
		c0.369,0.623,0.854,1.133,1.455,1.525c0.602,0.392,1.34,0.589,2.219,0.589c2.033-0.416,3.975-1.34,5.824-2.773
		c1.85-1.433,3.514-3.12,4.992-5.062s2.738-3.986,3.779-6.137c1.039-2.148,1.768-4.102,2.184-5.858l-0.207,16.571
		c0.23,1.109,0.623,1.826,1.178,2.149c0.555,0.324,1.098,0.416,1.629,0.277s0.994-0.427,1.387-0.866s0.543-0.867,0.451-1.283
		C352.365,161.195,352.33,158.733,352.262,155.982z M345.502,141.144c-0.648,2.937-1.643,5.79-2.982,8.563s-2.947,5.259-4.818,7.454
		c-1.873,2.195-3.826,3.709-5.859,4.541c-0.785,0-1.178-0.67-1.178-2.011c0-1.34,0.287-3.039,0.865-5.097
		c0.578-2.056,1.387-4.274,2.428-6.656c1.039-2.38,2.219-4.621,3.535-6.725c1.318-2.104,2.693-3.895,4.127-5.374
		c1.432-1.479,2.818-2.311,4.16-2.496C346.24,135.61,346.148,138.209,345.502,141.144z"/>
	<path fill="#FFFFFF" d="M371.572,157.439c-0.324-0.209-0.693-0.127-1.109,0.242c-1.248,1.479-2.393,2.474-3.432,2.981
		c-1.041,0.509-1.988,0.659-2.844,0.45c-0.855-0.207-1.607-0.693-2.254-1.455c-0.646-0.764-1.189-1.688-1.629-2.773
		s-0.775-2.265-1.006-3.537c-0.23-1.271-0.346-2.483-0.346-3.64c0-4.252,1.145-7.835,3.432-10.747
		c2.289-2.912,5.35-5.385,9.188-7.419c0.646-0.924,0.832-1.733,0.555-2.427s-0.74-1.063-1.387-1.109
		c-2.682,0.555-5.027,1.699-7.037,3.432c-2.012,1.734-3.676,3.699-4.992,5.895c-1.318,2.195-2.301,4.449-2.947,6.76
		c-0.648,2.312-0.926,4.368-0.832,6.171c-0.047,1.525,0.104,3.12,0.451,4.784c0.346,1.664,0.854,3.236,1.525,4.715
		c0.668,1.479,1.5,2.751,2.496,3.813c0.992,1.063,2.113,1.757,3.361,2.08s2.611,0.197,4.092-0.382
		c1.479-0.577,3.027-1.768,4.645-3.57c0.416-0.416,0.67-0.936,0.764-1.561c0.092-0.623,0.08-1.178-0.035-1.664
		C372.115,157.994,371.895,157.646,371.572,157.439z"/>
	<path fill="#FFFFFF" d="M380.932,150.712c0.047-2.241,0.059-4.402,0.035-6.482s-0.104-3.975-0.242-5.686
		c-0.047-1.479-0.359-2.38-0.938-2.704c-0.578-0.323-1.178-0.357-1.803-0.104c-0.623,0.255-1.154,0.671-1.594,1.248
		c-0.439,0.579-0.543,1.006-0.313,1.283c0.186,2.127,0.313,4.461,0.381,7.003c0.07,2.543,0.105,5.062,0.105,7.558
		s-0.035,4.843-0.105,7.037c-0.068,2.196-0.172,3.987-0.311,5.374c0.277,0.231,0.67,0.439,1.178,0.624s1.018,0.266,1.525,0.242
		s0.982-0.162,1.422-0.416c0.439-0.253,0.729-0.728,0.867-1.421c-0.139-2.172-0.221-4.414-0.244-6.726
		C380.873,155.232,380.885,152.956,380.932,150.712z"/>
	<path fill="#FFFFFF" d="M378.297,132.928c1.063,0,1.803-0.277,2.219-0.832s0.59-1.167,0.52-1.837
		c-0.068-0.67-0.357-1.271-0.865-1.803c-0.51-0.531-1.156-0.798-1.941-0.798c-0.926-0.046-1.584,0.197-1.977,0.728
		c-0.393,0.532-0.578,1.134-0.555,1.803c0.023,0.671,0.266,1.295,0.729,1.873C376.887,132.64,377.512,132.928,378.297,132.928z"/>
	<path fill="#FFFFFF" d="M404.783,159.033c-0.092-0.438-0.254-0.808-0.484-1.109c-0.232-0.3-0.533-0.473-0.902-0.52
		c-0.369-0.046-0.785,0.162-1.248,0.624c-0.23,0.231-0.484,0.589-0.762,1.075c-0.277,0.484-0.637,0.947-1.076,1.387
		s-0.982,0.774-1.629,1.005c-0.646,0.231-1.41,0.231-2.287,0c-0.926-0.23-1.734-0.809-2.428-1.733
		c-0.693-0.924-1.26-2.021-1.699-3.293s-0.785-2.623-1.039-4.057c-0.254-1.433-0.439-2.784-0.555-4.057
		c-0.115-1.271-0.15-2.392-0.104-3.362c0.045-0.971,0.139-1.595,0.277-1.872c1.479,0,2.992-0.115,4.541-0.347
		c1.549-0.23,2.947-0.67,4.195-1.317c1.248-0.646,2.264-1.536,3.051-2.67c0.785-1.132,1.178-2.6,1.178-4.402
		c0-0.878-0.127-1.722-0.381-2.531c-0.254-0.808-0.637-1.525-1.145-2.148c-0.508-0.625-1.133-1.121-1.871-1.491
		c-0.74-0.369-1.596-0.555-2.566-0.555c-1.756,0.093-3.201,0.485-4.334,1.179s-2.068,1.537-2.807,2.531
		c-0.74,0.994-1.354,2.08-1.838,3.258c-0.486,1.18-0.959,2.277-1.422,3.294c-0.832,0.047-1.455,0.243-1.871,0.589
		c-0.416,0.348-0.637,0.752-0.66,1.214c-0.023,0.463,0.139,0.96,0.486,1.491c0.346,0.531,0.844,1.028,1.49,1.49
		c-0.23,2.219-0.207,4.669,0.07,7.35c0.277,2.682,0.82,5.2,1.629,7.558s1.895,4.333,3.258,5.929
		c1.363,1.594,3.039,2.392,5.027,2.392c0.879,0,1.744-0.149,2.6-0.45s1.631-0.717,2.324-1.248s1.305-1.155,1.836-1.873
		c0.531-0.716,0.914-1.467,1.145-2.253C404.875,159.831,404.875,159.473,404.783,159.033z M393.1,134.662
		c0.855-1.155,1.779-2.021,2.773-2.6s1.93-0.751,2.809-0.521c0.879,0.231,1.387,1.109,1.525,2.635c0,1.063-0.336,1.907-1.006,2.53
		c-0.67,0.625-1.467,1.087-2.391,1.387c-0.926,0.302-1.873,0.451-2.844,0.451s-1.756-0.092-2.357-0.277
		C391.748,137.019,392.244,135.818,393.1,134.662z"/>
</g>
</svg>
