<?xml version="1.0" encoding="utf-8"?>
<!-- Generator: Adobe Illustrator 16.0.0, SVG Export Plug-In . SVG Version: 6.00 Build 0)  -->
<!DOCTYPE svg PUBLIC "-//W3C//DTD SVG 1.1//EN" "http://www.w3.org/Graphics/SVG/1.1/DTD/svg11.dtd">
<svg version="1.1" id="Warstwa_1" xmlns="http://www.w3.org/2000/svg" xmlns:xlink="http://www.w3.org/1999/xlink" x="0px" y="0px"
	 width="212.618px" height="45.672px" viewBox="0 0 212.618 45.672" enable-background="new 0 0 212.618 45.672"
	 xml:space="preserve">
<path fill="#3634A3" d="M8.885,15.02c-1.069-0.545-2.216-0.928-3.441-1.146c-1.226-0.219-2.337-0.279-3.332-0.183l0.073-2.002
	c-0.68-0.437-1.202-0.534-1.566-0.292C0.255,11.641,0.048,12.125,0,12.854l1.238,17.841C1.14,31.01,1.111,31.34,1.147,31.679
	c0.036,0.34,0.109,0.644,0.219,0.909c0.109,0.267,0.255,0.468,0.437,0.602c0.182,0.135,0.382,0.152,0.601,0.057
	c1.116-0.656,2.263-1.391,3.441-2.205c1.177-0.813,2.263-1.733,3.258-2.767c0.996-1.032,1.827-2.202,2.495-3.515
	c0.667-1.313,1.038-2.792,1.111-4.442c-0.025-1.238-0.401-2.294-1.129-3.168C10.851,16.276,9.953,15.567,8.885,15.02z M9.886,23.45
	c-0.498,0.898-1.11,1.768-1.839,2.604s-1.5,1.607-2.313,2.313c-0.813,0.703-1.499,1.237-2.057,1.602
	c-0.146-0.291-0.273-0.782-0.382-1.475C3.186,27.801,3.083,27,2.986,26.09c-0.097-0.91-0.176-1.869-0.237-2.876
	c-0.061-1.008-0.115-1.973-0.164-2.896C2.536,19.396,2.5,18.57,2.476,17.841c-0.024-0.728-0.024-1.274,0-1.638
	c0.219-0.146,0.564-0.237,1.038-0.273c0.473-0.037,1.007,0.006,1.602,0.127c0.595,0.121,1.214,0.31,1.857,0.564
	c0.643,0.256,1.225,0.589,1.748,1.002c0.522,0.413,0.959,0.898,1.311,1.457c0.352,0.558,0.528,1.19,0.528,1.894
	C10.608,21.727,10.383,22.552,9.886,23.45z"/>
<path fill="#3634A3" d="M23.232,15.567c-0.437-0.911-0.983-1.626-1.639-2.149c-0.656-0.521-1.408-0.734-2.258-0.637
	c-0.729,0.073-1.378,0.413-1.948,1.02c-0.571,0.607-1.056,1.377-1.457,2.312c-0.4,0.935-0.709,1.991-0.928,3.169
	c-0.219,1.178-0.346,2.379-0.382,3.604c-0.036,1.226,0.023,2.416,0.182,3.568c0.158,1.153,0.407,2.186,0.747,3.096
	c0.34,0.91,0.789,1.639,1.347,2.186s1.214,0.819,1.966,0.819c0.971,0,1.809-0.292,2.513-0.874c0.704-0.583,1.293-1.354,1.767-2.313
	c0.473-0.959,0.824-2.045,1.056-3.261c0.23-1.213,0.346-2.444,0.346-3.695c0-1.25-0.11-2.476-0.328-3.678
	C23.997,17.533,23.668,16.477,23.232,15.567z M22.558,22.594c-0.061,1.325-0.237,2.549-0.528,3.679
	c-0.291,1.128-0.698,2.063-1.22,2.804c-0.522,0.741-1.135,1.088-1.838,1.037c-0.414-0.023-0.777-0.261-1.093-0.709
	c-0.315-0.449-0.564-1.031-0.746-1.748c-0.183-0.716-0.316-1.523-0.401-2.422s-0.109-1.82-0.073-2.768
	c0.036-0.947,0.121-1.868,0.255-2.767c0.133-0.898,0.322-1.7,0.564-2.404s0.534-1.275,0.874-1.711
	c0.34-0.437,0.729-0.656,1.166-0.656c0.752-0.024,1.366,0.346,1.839,1.111c0.474,0.765,0.807,1.718,1.001,2.858
	S22.619,21.272,22.558,22.594z"/>
<path fill="#3634A3" d="M44.661,27.929c-0.013-1.263-0.018-2.562-0.018-3.896c0-1.336,0-2.66,0-3.971s-0.049-2.482-0.146-3.514
	c-0.097-1.032-0.249-1.869-0.455-2.513c-0.207-0.643-0.504-0.965-0.892-0.965c-0.219,0.048-0.382,0.048-0.491,0
	c-0.11-0.048-0.244-0.055-0.401-0.019c-0.158,0.037-0.376,0.17-0.656,0.401c-0.279,0.231-0.691,0.643-1.238,1.238
	c-0.547,0.595-1.256,1.426-2.13,2.494s-1.979,2.452-3.313,4.151c-1.165-1.092-2.167-2.281-3.004-3.568
	c-0.838-1.286-1.669-2.549-2.495-3.787c-0.073-0.048-0.224-0.151-0.455-0.309c-0.231-0.158-0.491-0.255-0.783-0.292
	c-0.291-0.037-0.582,0.036-0.874,0.219c-0.291,0.182-0.546,0.576-0.765,1.183c0.048,0.268,0.06,0.875,0.037,1.821
	c-0.024,0.947-0.043,2.16-0.055,3.641c-0.013,1.481-0.018,3.209-0.018,5.189s0.06,4.146,0.182,6.5c0,0.461,0.127,0.795,0.382,1.001
	c0.255,0.206,0.534,0.298,0.838,0.273c0.303-0.024,0.57-0.158,0.801-0.4c0.231-0.243,0.333-0.582,0.31-1.02
	c0-0.438-0.013-1.039-0.036-1.804c-0.025-0.765-0.055-1.606-0.091-2.53c-0.036-0.922-0.079-1.888-0.127-2.896
	c-0.048-1.009-0.091-1.984-0.127-2.931c-0.036-0.947-0.067-1.814-0.091-2.604c-0.024-0.788-0.037-1.426-0.037-1.911
	c1.068,1.384,1.96,2.5,2.676,3.351c0.716,0.849,1.311,1.511,1.784,1.983c0.474,0.474,0.837,0.796,1.092,0.967
	c0.255,0.17,0.456,0.254,0.601,0.254c0.291,0.193,0.667,0.104,1.129-0.272c0.461-0.376,1.013-0.929,1.657-1.656
	c0.643-0.729,1.353-1.585,2.13-2.569c0.777-0.982,1.625-1.983,2.549-3.003c0.048,0.34,0.06,0.922,0.036,1.749
	c-0.024,0.824-0.042,1.893-0.055,3.204c-0.012,1.31-0.006,2.84,0.019,4.588c0.023,1.748,0.121,3.701,0.291,5.861
	c0.024,0.559,0.176,0.936,0.455,1.129c0.279,0.193,0.57,0.256,0.875,0.182c0.303-0.071,0.569-0.254,0.801-0.545
	c0.23-0.291,0.322-0.655,0.273-1.094C44.728,30.295,44.673,29.191,44.661,27.929z"/>
<path fill="#3634A3" d="M56.732,28.348c-0.122-0.158-0.279-0.248-0.473-0.273c-0.194-0.023-0.413,0.086-0.655,0.327
	c-0.122,0.123-0.255,0.312-0.401,0.565s-0.334,0.496-0.564,0.728s-0.516,0.407-0.856,0.528c-0.34,0.121-0.74,0.121-1.201,0
	c-0.486-0.121-0.91-0.424-1.274-0.91c-0.364-0.484-0.662-1.063-0.893-1.729c-0.23-0.668-0.413-1.377-0.546-2.131
	c-0.133-0.752-0.231-1.463-0.292-2.13c-0.061-0.668-0.079-1.256-0.055-1.766c0.024-0.51,0.073-0.837,0.146-0.983
	c0.777,0,1.571-0.06,2.385-0.183c0.813-0.12,1.547-0.352,2.203-0.69c0.656-0.34,1.189-0.808,1.603-1.403
	c0.412-0.595,0.619-1.365,0.619-2.313c0-0.46-0.067-0.904-0.2-1.329c-0.134-0.424-0.333-0.801-0.601-1.128
	c-0.268-0.328-0.595-0.589-0.983-0.783c-0.389-0.194-0.837-0.291-1.347-0.291c-0.923,0.049-1.681,0.255-2.276,0.619
	c-0.595,0.364-1.087,0.807-1.475,1.329c-0.389,0.522-0.71,1.092-0.965,1.711c-0.255,0.62-0.504,1.196-0.746,1.729
	c-0.437,0.025-0.765,0.128-0.983,0.309c-0.218,0.184-0.334,0.396-0.346,0.638c-0.013,0.243,0.072,0.504,0.255,0.783
	c0.182,0.279,0.443,0.54,0.783,0.783c-0.122,1.165-0.109,2.452,0.037,3.86s0.431,2.73,0.855,3.969
	c0.424,1.238,0.996,2.275,1.712,3.113c0.715,0.836,1.596,1.257,2.64,1.257c0.461,0,0.916-0.078,1.366-0.236
	c0.449-0.157,0.855-0.377,1.22-0.655c0.364-0.279,0.686-0.606,0.965-0.983c0.279-0.375,0.479-0.771,0.601-1.183
	c0.048-0.146,0.048-0.334,0-0.565C56.938,28.7,56.853,28.506,56.732,28.348z M50.851,16.131c0.449-0.606,0.935-1.062,1.457-1.365
	c0.521-0.304,1.013-0.395,1.474-0.273c0.461,0.122,0.729,0.583,0.802,1.384c0,0.559-0.176,1.002-0.528,1.329
	c-0.352,0.328-0.771,0.572-1.256,0.729c-0.486,0.158-0.983,0.236-1.493,0.236c-0.51,0-0.923-0.047-1.238-0.145
	C50.142,17.369,50.402,16.738,50.851,16.131z"/>
<path fill="#3634A3" d="M70.096,28.002c-0.583,0.072-1.201,0.127-1.857,0.162c-0.656,0.037-1.342-0.041-2.058-0.235
	c-0.716-0.193-1.451-0.54-2.203-1.038c-0.753-0.497-1.529-1.256-2.331-2.275c-0.073-0.605,0.151-1.201,0.674-1.784
	c0.522-0.582,1.177-1.213,1.966-1.894c0.788-0.679,1.614-1.444,2.476-2.294c0.861-0.849,1.583-1.845,2.167-2.986
	c0.048-0.267,0.042-0.516-0.019-0.747c-0.061-0.23-0.158-0.413-0.291-0.546c-0.134-0.133-0.297-0.206-0.491-0.219
	c-0.195-0.011-0.401,0.055-0.62,0.201c-0.268,0.316-0.644,0.795-1.128,1.438c-0.486,0.644-1.02,1.311-1.603,2.002
	c-0.583,0.692-1.171,1.335-1.766,1.931c-0.595,0.594-1.136,0.989-1.621,1.182c0-0.387-0.018-0.904-0.055-1.546
	c-0.036-0.644-0.073-1.341-0.109-2.094c-0.037-0.752-0.067-1.53-0.091-2.331c-0.025-0.801-0.036-1.565-0.036-2.294
	c-0.098-0.194-0.255-0.34-0.474-0.437c-0.218-0.097-0.45-0.127-0.692-0.091c-0.243,0.037-0.468,0.152-0.673,0.346
	c-0.207,0.194-0.346,0.485-0.419,0.874c0.218,1.651,0.303,3.301,0.255,4.952c-0.049,1.651-0.127,3.289-0.237,4.916
	c-0.109,1.628-0.182,3.21-0.219,4.753c-0.036,1.541,0.067,3.027,0.31,4.459c0.146,0.193,0.34,0.334,0.583,0.42
	c0.243,0.084,0.492,0.121,0.747,0.108c0.255-0.013,0.473-0.067,0.655-0.164c0.183-0.097,0.273-0.218,0.273-0.364l-0.219-5.134
	c0.656,0.267,1.305,0.603,1.948,1.002s1.305,0.788,1.985,1.164c0.679,0.378,1.377,0.687,2.094,0.929
	c0.716,0.243,1.498,0.327,2.349,0.256c0.51-0.17,0.879-0.396,1.11-0.674c0.23-0.277,0.364-0.559,0.401-0.838
	c0.036-0.279-0.024-0.521-0.183-0.729C70.539,28.178,70.338,28.049,70.096,28.002z"/>
<path fill="#3634A3" d="M104.816,12.271c-0.304-0.073-0.596-0.042-0.874,0.091c-0.279,0.133-0.432,0.395-0.456,0.783
	c-0.461,1.068-0.844,2.264-1.146,3.587c-0.305,1.323-0.583,2.676-0.838,4.06c-0.254,1.384-0.51,2.726-0.765,4.024
	c-0.255,1.298-0.564,2.457-0.929,3.478c-0.922-1.895-1.699-3.515-2.33-4.861c-0.632-1.348-1.16-2.463-1.584-3.35
	c-0.425-0.886-0.771-1.583-1.038-2.093c-0.268-0.51-0.498-0.886-0.692-1.129c-0.194-0.243-0.376-0.389-0.546-0.437
	c-0.17-0.049-0.364-0.049-0.582,0c-0.389,0.024-0.747,0.31-1.075,0.855c-0.327,0.547-0.637,1.238-0.928,2.076
	c-0.292,0.837-0.564,1.76-0.819,2.767c-0.255,1.008-0.498,1.99-0.729,2.949s-0.461,1.813-0.692,2.565
	c-0.231,0.755-0.455,1.301-0.674,1.641L85.17,13.472c-0.194-0.315-0.413-0.534-0.655-0.655c-0.243-0.121-0.474-0.157-0.692-0.109
	c-0.219,0.049-0.4,0.176-0.546,0.383c-0.146,0.206-0.218,0.479-0.218,0.819c0.023,0.219,0.115,0.74,0.273,1.565
	c0.157,0.826,0.346,1.809,0.564,2.951c0.218,1.141,0.467,2.372,0.747,3.695c0.278,1.323,0.546,2.59,0.801,3.805
	c0.255,1.214,0.492,2.301,0.71,3.259c0.219,0.96,0.388,1.646,0.51,2.058c0.437,0.803,0.947,1.172,1.53,1.111
	s1.043-0.395,1.384-1.002c0.121-0.291,0.267-0.74,0.437-1.348c0.169-0.605,0.358-1.287,0.564-2.039s0.413-1.529,0.619-2.33
	c0.206-0.803,0.425-1.561,0.656-2.275c0.23-0.716,0.455-1.349,0.674-1.894c0.218-0.547,0.424-0.917,0.619-1.111
	c0.558,0.534,1.068,1.208,1.529,2.021c0.46,0.813,0.904,1.682,1.329,2.604c0.424,0.923,0.819,1.847,1.183,2.769
	c0.365,0.922,0.723,1.748,1.075,2.476c0.351,0.728,0.704,1.312,1.055,1.747c0.352,0.438,0.722,0.631,1.111,0.584
	c0.291,0.072,0.577-0.299,0.855-1.11c0.279-0.813,0.552-1.87,0.819-3.168c0.267-1.299,0.546-2.726,0.837-4.278
	c0.292-1.555,0.595-3.046,0.911-4.479c0.315-1.432,0.649-2.695,1.001-3.788c0.352-1.092,0.747-1.808,1.184-2.148
	c0-0.339-0.127-0.625-0.383-0.855C105.399,12.496,105.119,12.344,104.816,12.271z"/>
<path fill="#3634A3" d="M137.679,2.949c2.937-0.17,5.237-0.242,6.899-0.218c1.664,0.024,2.737-0.037,3.223-0.182
	c0.511-0.194,0.869-0.437,1.074-0.729c0.207-0.291,0.311-0.57,0.311-0.838c0-0.266-0.098-0.497-0.292-0.691S148.445,0,148.129,0
	c-2.914,0.291-5.68,0.485-8.303,0.583c-2.621,0.097-5.152,0.273-7.592,0.527c-2.439,0.256-4.794,0.687-7.064,1.293
	c-2.27,0.607-4.508,1.579-6.717,2.914c-0.291,0.364-0.414,0.74-0.365,1.128c0.049,0.389,0.195,0.698,0.438,0.928
	c0.243,0.231,0.547,0.341,0.911,0.328c0.364-0.012,0.704-0.224,1.021-0.637c1.188-0.874,3.004-1.663,5.443-2.367
	c2.439-0.704,5.577-1.225,9.413-1.565c0.461,3.18,0.724,6.47,0.783,9.868c0.062,3.399-0.054,6.688-0.347,9.868
	c-0.291,3.181-0.746,6.142-1.365,8.884c-0.619,2.744-1.379,5.074-2.275,6.992c-0.898,1.918-1.918,3.301-3.059,4.15
	s-2.391,0.958-3.75,0.327c-1.287-0.606-2.186-1.511-2.694-2.712s-0.71-2.573-0.601-4.114c0.109-1.542,0.496-3.175,1.166-4.897
	c0.666-1.724,1.517-3.404,2.549-5.043c1.031-1.639,2.221-3.157,3.568-4.553c1.346-1.396,2.76-2.531,4.242-3.404
	c0.533-0.316,0.897-0.68,1.092-1.093c0.194-0.412,0.26-0.788,0.201-1.128c-0.062-0.339-0.22-0.594-0.475-0.765
	c-0.255-0.169-0.564-0.169-0.928,0c-1.604,0.947-3.103,2.064-4.498,3.35c-1.396,1.287-2.651,2.665-3.768,4.134
	c-1.117,1.468-2.089,3.003-2.914,4.606c-0.824,1.603-1.461,3.181-1.91,4.733c-0.451,1.553-0.699,3.053-0.748,4.498
	c-0.049,1.441,0.146,2.754,0.584,3.933c0.437,1.176,1.123,2.185,2.057,3.021s2.154,1.414,3.66,1.73
	c1.311,0.29,2.506,0.175,3.586-0.348c1.08-0.521,2.063-1.359,2.949-2.512c0.887-1.154,1.67-2.58,2.349-4.279
	c0.681-1.698,1.263-3.601,1.748-5.698c0.485-2.099,0.868-4.353,1.147-6.755c0.278-2.402,0.467-4.885,0.564-7.446
	c0.096-2.561,0.096-5.158,0-7.792C138.127,8.053,137.946,5.474,137.679,2.949z"/>
<path fill="#3634A3" d="M153.592,23.287c-0.098-1.688-0.152-3.394-0.164-5.118c-0.014-1.723-0.031-3.325-0.055-4.806
	c-0.074-0.17-0.213-0.304-0.418-0.401c-0.209-0.097-0.433-0.146-0.674-0.146c-0.244,0-0.468,0.042-0.675,0.127
	c-0.206,0.085-0.321,0.225-0.346,0.419c-0.05,0.413-0.128,1.092-0.237,2.039c-0.109,0.947-0.254,2.015-0.438,3.204
	c-0.182,1.19-0.399,2.428-0.654,3.715c-0.254,1.287-0.546,2.464-0.874,3.531c-0.327,1.069-0.69,1.955-1.093,2.659
	c-0.399,0.703-0.832,1.066-1.291,1.092c-0.316-0.121-0.588-0.516-0.82-1.184c-0.23-0.668-0.424-1.492-0.583-2.477
	c-0.157-0.982-0.285-2.074-0.382-3.277c-0.098-1.201-0.172-2.396-0.219-3.586c-0.049-1.189-0.073-2.313-0.073-3.368
	c0-1.057,0-1.949,0-2.676c-0.097-0.292-0.261-0.486-0.491-0.583c-0.23-0.097-0.468-0.127-0.709-0.091
	c-0.244,0.036-0.475,0.116-0.693,0.237c-0.218,0.122-0.363,0.267-0.437,0.437c-0.024,0.874-0.024,1.948,0,3.222
	c0.024,1.275,0.073,2.616,0.146,4.024c0.073,1.408,0.201,2.815,0.383,4.223c0.183,1.408,0.418,2.684,0.709,3.824
	s0.668,2.094,1.129,2.857c0.462,0.766,1.008,1.195,1.639,1.292c0.484,0,0.979-0.119,1.475-0.362c0.498-0.244,0.972-0.645,1.42-1.201
	c0.449-0.56,0.861-1.293,1.238-2.203c0.375-0.91,0.698-2.045,0.965-3.404c0.121,0.242,0.225,0.716,0.311,1.42
	c0.084,0.704,0.175,1.456,0.271,2.258c0.099,0.801,0.213,1.564,0.348,2.294c0.132,0.728,0.32,1.249,0.564,1.565
	c0.12,0.048,0.295,0.078,0.527,0.091c0.23,0.013,0.455-0.019,0.673-0.091c0.22-0.073,0.407-0.188,0.565-0.348
	c0.156-0.156,0.236-0.381,0.236-0.672c-0.365-1.021-0.644-2.275-0.838-3.771C153.834,26.563,153.688,24.974,153.592,23.287z"/>
<path fill="#3634A3" d="M169.213,28.002c-1.772-0.875-3.205-1.688-4.297-2.439c-1.092-0.753-1.942-1.402-2.549-1.949
	c-0.607-0.546-1.02-0.994-1.238-1.346c-0.219-0.353-0.328-0.565-0.328-0.638c0.099,0.048,0.328,0.006,0.693-0.128
	c0.363-0.133,0.775-0.333,1.237-0.601c0.46-0.266,0.947-0.594,1.457-0.982c0.511-0.388,0.964-0.826,1.366-1.312
	c0.4-0.484,0.722-1.013,0.965-1.583c0.24-0.57,0.327-1.159,0.254-1.766c0-0.801-0.152-1.402-0.456-1.802
	c-0.304-0.401-0.698-0.661-1.183-0.783c-0.486-0.121-1.032-0.121-1.639,0c-0.607,0.122-1.215,0.298-1.822,0.528
	c-0.606,0.231-1.176,0.486-1.711,0.765c-0.533,0.279-0.982,0.528-1.348,0.746l-0.107-1.493c-0.073-0.242-0.219-0.382-0.438-0.418
	c-0.219-0.037-0.443,0.005-0.674,0.126c-0.23,0.122-0.443,0.31-0.637,0.564c-0.195,0.256-0.305,0.565-0.328,0.929
	c-0.023,0.704-0.018,1.518,0.02,2.44c0.035,0.923,0.065,1.905,0.09,2.949c0.023,1.045,0.055,2.111,0.09,3.205
	c0.037,1.092,0.057,2.146,0.057,3.167s-0.031,1.966-0.091,2.841c-0.062,0.874-0.152,1.613-0.272,2.221
	c-0.025,0.485,0.053,0.838,0.235,1.057s0.407,0.34,0.674,0.363c0.267,0.024,0.534-0.035,0.802-0.183
	c0.266-0.146,0.461-0.339,0.582-0.582l-0.182-8.411c0.752,0.292,1.559,0.747,2.421,1.365c0.86,0.619,1.706,1.256,2.532,1.912
	c0.824,0.654,1.596,1.262,2.313,1.82c0.715,0.559,1.329,0.936,1.84,1.129c0.363,0.099,0.715,0.092,1.055-0.02
	c0.339-0.109,0.613-0.261,0.818-0.453c0.207-0.195,0.305-0.408,0.291-0.639C169.693,28.372,169.528,28.172,169.213,28.002z
	 M158.543,20.355l0.184-3.132c0.605-0.51,1.261-0.977,1.966-1.402c0.704-0.424,1.353-0.734,1.948-0.928
	c0.595-0.194,1.086-0.249,1.475-0.165c0.389,0.086,0.57,0.395,0.545,0.929c-0.193,0.655-0.496,1.244-0.908,1.766
	c-0.414,0.522-0.899,0.971-1.457,1.348c-0.561,0.376-1.166,0.698-1.821,0.964C159.819,20.003,159.174,20.21,158.543,20.355z"/>
<path fill="#3634A3" d="M184.999,27.329c-0.037-1.445-0.09-2.926-0.164-4.443c-0.072-1.517-0.17-3.016-0.291-4.497
	s-0.268-2.841-0.438-4.078c0-0.315-0.091-0.564-0.273-0.747c-0.183-0.182-0.408-0.327-0.674-0.437
	c-0.267-0.109-0.546-0.182-0.837-0.218c-0.292-0.036-0.547-0.054-0.765-0.054c-0.777,0-1.571,0.327-2.385,0.983
	c-0.813,0.655-1.59,1.493-2.33,2.513c-0.741,1.02-1.438,2.16-2.094,3.423c-0.656,1.262-1.232,2.512-1.729,3.751
	c-0.498,1.237-0.888,2.379-1.166,3.423c-0.278,1.045-0.419,1.868-0.419,2.475c0,0.392,0.042,0.777,0.127,1.166
	c0.085,0.39,0.225,0.748,0.419,1.074c0.194,0.328,0.449,0.596,0.765,0.803c0.315,0.205,0.703,0.309,1.164,0.309
	c1.068-0.218,2.088-0.703,3.059-1.456c0.973-0.752,1.847-1.64,2.623-2.659c0.777-1.02,1.438-2.093,1.986-3.222
	c0.545-1.128,0.928-2.154,1.146-3.077l-0.108,8.703c0.121,0.582,0.327,0.959,0.618,1.129c0.292,0.171,0.577,0.219,0.856,0.146
	c0.279-0.073,0.521-0.225,0.729-0.455c0.206-0.23,0.285-0.455,0.237-0.676C185.053,30.064,185.036,28.772,184.999,27.329z
	 M181.45,19.535c-0.341,1.542-0.863,3.041-1.566,4.499c-0.704,1.455-1.549,2.76-2.53,3.914c-0.983,1.152-2.011,1.947-3.077,2.385
	c-0.412,0-0.619-0.353-0.619-1.057c0-0.703,0.151-1.597,0.454-2.677c0.304-1.08,0.729-2.245,1.274-3.496
	c0.546-1.249,1.166-2.427,1.857-3.532c0.692-1.105,1.414-2.044,2.166-2.822c0.752-0.776,1.48-1.213,2.186-1.311
	C181.836,16.628,181.788,17.994,181.45,19.535z"/>
<path fill="#3634A3" d="M195.141,28.092c-0.171-0.108-0.365-0.066-0.583,0.129c-0.655,0.775-1.257,1.299-1.804,1.564
	c-0.545,0.269-1.043,0.346-1.492,0.236c-0.449-0.107-0.846-0.363-1.184-0.764c-0.34-0.401-0.625-0.887-0.855-1.457
	s-0.407-1.19-0.528-1.857c-0.12-0.668-0.182-1.305-0.182-1.91c0-2.234,0.603-4.116,1.802-5.646c1.202-1.529,2.811-2.828,4.826-3.896
	c0.339-0.485,0.438-0.91,0.291-1.274c-0.146-0.364-0.389-0.558-0.729-0.583c-1.408,0.291-2.642,0.892-3.697,1.802
	c-1.055,0.911-1.93,1.942-2.62,3.095c-0.692,1.153-1.21,2.337-1.548,3.55c-0.342,1.214-0.486,2.293-0.438,3.241
	c-0.024,0.801,0.056,1.639,0.237,2.514c0.182,0.873,0.447,1.697,0.801,2.476c0.352,0.776,0.788,1.444,1.313,2.003
	c0.521,0.559,1.108,0.922,1.765,1.092c0.655,0.172,1.372,0.104,2.149-0.199c0.775-0.304,1.59-0.929,2.438-1.875
	c0.218-0.22,0.353-0.492,0.399-0.819c0.049-0.328,0.043-0.618-0.019-0.874C195.424,28.385,195.31,28.202,195.141,28.092z"/>
<path fill="#3634A3" d="M200.055,24.561c0.025-1.178,0.031-2.312,0.02-3.405c-0.013-1.092-0.055-2.086-0.128-2.986
	c-0.024-0.776-0.188-1.249-0.491-1.419c-0.305-0.17-0.619-0.188-0.947-0.055c-0.326,0.134-0.605,0.353-0.836,0.656
	c-0.231,0.305-0.287,0.528-0.166,0.674c0.099,1.117,0.166,2.343,0.201,3.678c0.037,1.336,0.056,2.658,0.056,3.968
	c0,1.313-0.019,2.545-0.056,3.697c-0.035,1.152-0.09,2.092-0.164,2.821c0.146,0.121,0.353,0.229,0.619,0.327
	c0.268,0.098,0.534,0.141,0.801,0.127c0.268-0.012,0.517-0.084,0.748-0.219c0.229-0.133,0.381-0.381,0.455-0.745
	c-0.074-1.142-0.115-2.318-0.129-3.533C200.024,26.934,200.032,25.738,200.055,24.561z"/>
<path fill="#3634A3" d="M198.672,15.22c0.558,0,0.945-0.145,1.164-0.437c0.219-0.291,0.311-0.612,0.273-0.964
	s-0.188-0.668-0.455-0.947c-0.268-0.279-0.607-0.419-1.02-0.419c-0.486-0.024-0.832,0.104-1.038,0.382s-0.304,0.595-0.291,0.947
	c0.012,0.353,0.139,0.68,0.383,0.983C197.932,15.069,198.26,15.22,198.672,15.22z"/>
<path fill="#3634A3" d="M212.581,28.93c-0.047-0.23-0.133-0.424-0.254-0.582s-0.279-0.248-0.474-0.273
	c-0.194-0.023-0.413,0.086-0.655,0.327c-0.121,0.123-0.255,0.312-0.4,0.565c-0.145,0.254-0.334,0.496-0.564,0.728
	s-0.516,0.407-0.855,0.528c-0.338,0.121-0.739,0.121-1.201,0c-0.485-0.121-0.909-0.424-1.273-0.91
	c-0.363-0.484-0.662-1.063-0.893-1.729c-0.231-0.668-0.412-1.377-0.547-2.131c-0.133-0.752-0.229-1.463-0.291-2.13
	c-0.061-0.668-0.078-1.256-0.055-1.766c0.023-0.51,0.073-0.837,0.146-0.983c0.775,0,1.57-0.06,2.386-0.183
	c0.813-0.12,1.547-0.352,2.202-0.69c0.656-0.34,1.189-0.808,1.604-1.403c0.412-0.595,0.617-1.365,0.617-2.313
	c0-0.46-0.066-0.904-0.199-1.329c-0.133-0.424-0.334-0.801-0.602-1.128c-0.268-0.328-0.596-0.589-0.982-0.783
	c-0.389-0.194-0.838-0.291-1.348-0.291c-0.922,0.049-1.682,0.255-2.275,0.619c-0.596,0.364-1.086,0.807-1.475,1.329
	s-0.711,1.092-0.966,1.711c-0.255,0.62-0.503,1.196-0.746,1.729c-0.438,0.025-0.765,0.128-0.983,0.309
	c-0.218,0.184-0.334,0.396-0.346,0.638c-0.013,0.243,0.072,0.504,0.256,0.783c0.182,0.279,0.442,0.54,0.781,0.783
	c-0.121,1.165-0.107,2.452,0.037,3.86s0.432,2.73,0.855,3.969s0.994,2.275,1.711,3.113c0.715,0.836,1.597,1.257,2.641,1.257
	c0.461,0,0.916-0.078,1.365-0.236c0.449-0.157,0.855-0.377,1.221-0.655c0.363-0.279,0.686-0.606,0.964-0.983
	c0.278-0.375,0.479-0.771,0.601-1.183C212.629,29.349,212.629,29.161,212.581,28.93z M206.445,16.131
	c0.449-0.606,0.935-1.062,1.457-1.365c0.521-0.304,1.015-0.395,1.476-0.273s0.729,0.583,0.802,1.384
	c0,0.559-0.177,1.002-0.528,1.329c-0.352,0.328-0.771,0.572-1.256,0.729c-0.486,0.158-0.982,0.236-1.493,0.236
	c-0.51,0-0.922-0.047-1.237-0.145C205.736,17.369,205.997,16.738,206.445,16.131z"/>
</svg>
